<?xml version="1.0" standalone="yes"?>
<svg xmlns="http://www.w3.org/2000/svg" width="37" height="110">
<path style="fill:#fffffe; stroke:none;" d="M0 0L0 110L4 110C3.01733 101.203 2.81196 91.735 4.45988 83C5.94803 75.1119 9.06043 68.0838 9.83025 60C10.6894 50.9778 8.45457 42.0592 9.08951 33C9.59944 25.7244 12.358 18.3895 11.9275 11.0394C11.6933 7.04106 9.08018 4.09326 9 0L0 0z"/>
<path style="fill:#fffdf6; stroke:none;" d="M8 1C8.90567 4.4445 11.4684 7.51395 11.8171 11.0394C12.4643 17.5816 9.81745 24.5299 9.17052 31C8.43137 38.3925 9.42124 45.6663 10 53C11.6973 48.9552 10.793 44.3296 11.0895 40C11.6177 32.2866 12.8168 24.6249 14.0802 17C14.6592 13.5061 14.7661 6.89616 18.3364 4.9213C20.9552 3.47279 22.0784 7.18424 22.5316 9.0054C24.0015 14.9116 23.8569 21.0443 25 27C28.0357 42.8163 27.5872 59.3923 31.0154 75C32.8965 83.5639 37.9867 94.0259 34.2577 102.941C32.6752 106.725 28.6309 107.26 25 107.714C17.4517 108.657 7.98701 109.378 5 101C3.9787 103.13 2.38037 107.048 4.64275 108.972C6.79925 110.807 11.3925 110 14 110L37 110C37 96.2401 36.7205 82.6139 35 69L32 69C31.3146 53.0359 28.947 37.5863 26.3974 22C25.4085 15.9551 28.7164 10.3248 25.1512 4.44367C21.6464 -1.33776 13.6511 -0.670387 8 1z"/>
<path style="fill:#fefefc; stroke:none;" d="M22 0C23.9442 3.67735 26.3493 6.6809 26.8611 10.9614C27.3091 14.7088 25.7289 18.2448 26.2145 22.0008C26.5725 24.77 27.9422 27.2576 28.3827 30C30.4206 42.6877 30.9808 56.0852 32 69L35 69C35.4446 74.6416 35.0836 80.4462 36 86C39.105 78.6005 37 67.0073 37 59L37 0L22 0z"/>
<path style="fill:#e0cc98; stroke:none;" d="M18 3C19.7523 6.08929 20.1484 9.83246 23 12C22.2347 7.95776 22.2537 4.41067 18 3z"/>
<path style="fill:#dcc49c; stroke:none;" d="M17 4C15.0598 10.8882 12.9732 17.8053 14 25C15.7038 21.2047 15.5533 17.047 16.3349 13C16.9877 9.61951 18.6193 7.19849 17 4z"/>
<path style="fill:#c2b696; stroke:none;" d="M18 4L18 6L20 6L20 4L18 4z"/>
<path style="fill:#f4cb8b; stroke:none;" d="M19 6C12.6489 16.3678 15.0951 30.4279 13.5756 42C13.0057 46.3406 11.4396 54.4853 13.6026 58.517C14.5734 60.3264 17.2935 60.319 19 61L21 61L24 58L24 62L26 62C26.3273 54.3775 26.8062 47.6406 25.5617 40C24.829 35.5016 22.4397 31.4801 22.0039 26.9853C21.2968 19.6929 23.1279 12.5697 19 6z"/>
<path style="fill:#f1e7ca; stroke:none;" d="M15.3333 8.66666C15.2778 8.72222 15.2222 9.77778 15.6667 9.33334C15.7222 9.27777 15.7778 8.22223 15.3333 8.66666z"/>
<path style="fill:#f3e2be; stroke:none;" d="M22.3333 8.66666C22.2778 8.72225 22.2222 9.77776 22.6667 9.33334C22.7222 9.27781 22.7778 8.22221 22.3333 8.66666z"/>
<path style="fill:#d4bc8c; stroke:none;" d="M22 12C22.0214 19.7466 23.936 27.2653 24 35C27.2279 29.5036 24.6814 17.5796 22 12z"/>
<path style="fill:#eddbc2; stroke:none;" d="M23 14L23 17C23.6961 15.4463 23.6961 15.5537 23 14z"/>
<path style="fill:#e5c594; stroke:none;" d="M22 20C21.3629 24.0028 21.967 27.9551 22 32L24 32C23.8296 28.0308 23.5731 23.6468 22 20z"/>
<path style="fill:#d5ad8a; stroke:none;" d="M13 22C11.3217 35.2912 10.0496 49.5459 11 63C13.6394 59.1366 12.95 54.5294 13.0039 50C13.1066 41.3631 16.4457 30.2116 13 22z"/>
<path style="fill:#bfa683; stroke:none;" d="M12 32L12 37C12.8299 34.9695 12.8299 34.0305 12 32z"/>
<path style="fill:#cda888; stroke:none;" d="M25 32C25.0263 41.5428 26.7542 50.4432 26 60C30.5061 53.6545 28.9325 38.563 25 32z"/>
<path style="fill:#d9c8af; stroke:none;" d="M11 36L11 40C11.7102 38.2405 11.7102 37.7595 11 36z"/>
<path style="fill:#edd7c4; stroke:none;" d="M27.3333 40.6667C27.2778 40.7222 27.2222 41.7778 27.6667 41.3333C27.7222 41.2778 27.7778 40.2222 27.3333 40.6667z"/>
<path style="fill:#ecd9c2; stroke:none;" d="M28.3333 50.6667C28.2778 50.7222 28.2222 51.7778 28.6667 51.3333C28.7222 51.2778 28.7778 50.2222 28.3333 50.6667z"/>
<path style="fill:#dec3b2; stroke:none;" d="M10 53L10 56C10.6961 54.4463 10.6961 54.5537 10 53z"/>
<path style="fill:#b29679; stroke:none;" d="M28 56L28 62C28.9511 59.7147 28.9511 58.2853 28 56z"/>
<path style="fill:#e5b485; stroke:none;" d="M27 57C25.6157 60.7676 23.956 61.6953 20 62C22.2832 63.2215 24.4278 63.6521 27 64C27.6169 61.3582 27.9902 59.5232 27 57z"/>
<path style="fill:#c59e8b; stroke:none;" d="M10 58L10 66C11.5862 63.222 11.3503 60.8818 10 58z"/>
<path style="fill:#e4c490; stroke:none;" d="M23 58C21.9644 59.1863 21.6614 59.6036 21 61L19 61L19 59C16.9345 59.5291 15.1246 59.9478 13 60L11 65C15.3424 63.8483 19.5277 62.578 24 62C23.8259 60.3148 23.683 59.506 23 58z"/>
<path style="fill:#fbe8d7; stroke:none;" d="M29 60L29 67C30.0595 64.4657 30.0595 62.5343 29 60z"/>
<path style="fill:#e2dbd0; stroke:none;" d="M9 62C8.93678 69.071 5.42323 75.0482 4.80324 82C4.56146 84.711 5.61051 87.3254 5.90046 90C6.41641 94.7592 6.97275 100.175 12 102C10.978 93.9135 11.7071 86.1392 12 78L16 78C17.8045 71.7272 22.2073 71.2934 28 72C28.9825 60.813 17.0787 62.0348 10 66C9.82589 64.3148 9.68303 63.506 9 62z"/>
<path style="fill:#b8a390; stroke:none;" d="M27 62C27.1759 63.8782 27.4382 65.1994 28 67C28.7789 65.231 28.9124 63.9641 29 62L27 62z"/>
<path style="fill:#c7b9ae; stroke:none;" d="M28 67C28.6836 68.58 28.8048 68.7772 30 70L30 67L28 67z"/>
<path style="fill:#ebe3d8; stroke:none;" d="M28 70C25.3945 71.513 22.9749 71.1324 20 71L21 76L16 74L16 78L12 78L12 82L22 82C22.3941 87.0042 26.2136 89.4877 28 94C35.6783 91.4516 31.5486 75.9858 30 70L28 70z"/>
<path style="fill:#fcf8ec; stroke:none;" d="M17 73L17 75L21 76L21 72L17 73z"/>
<path style="fill:#e6e1dd; stroke:none;" d="M5.33333 78.6667C5.27777 78.7222 5.22223 79.7778 5.66667 79.3333C5.72222 79.2778 5.77778 78.2222 5.33333 78.6667z"/>
<path style="fill:#fff6ee; stroke:none;" d="M13 80C14.769 80.7789 16.0359 80.9124 18 81L18 79C16.1218 79.1759 14.8006 79.4382 13 80z"/>
<path style="fill:#e5dbd2; stroke:none;" d="M32 80C32 85.2868 33.2125 91.1257 28 94C27.0741 90.1962 25.6873 88.3777 22 87C22.8993 89.1236 22.8764 89.1007 25 90C24.1569 94.6137 25.0099 97.5553 26 102C28.2049 101.906 29.8941 101.644 32 101L33 105L30 106C33.7887 106.824 34.7469 103.321 34.956 99.9992C35.3618 93.5514 35.8822 85.449 32 80z"/>
<path style="fill:#dfcec6; stroke:none;" d="M11 82C12.102 88.6785 10.7461 95.246 12 102C9.44727 100.467 8.48005 98.593 7 96C5.09216 100.15 10.8362 104.5 9 107C14.2267 109.003 30.2057 107.134 32 101L26 102C25.4337 97.6958 24.4877 94.4294 25 90C22.46 87.5157 22.1116 85.5237 22 82L11 82z"/>
<path style="fill:#cfcbc0; stroke:none;" d="M4 84C3.39068 91.7208 0.738824 104.811 11 107C9.39463 104.031 6.96829 101.379 6.27778 97.9961C5.28067 93.1107 6.96114 88.3344 4 84z"/>
<path style="fill:#cdc2b7; stroke:none;" d="M12 107C18.3294 109.656 27.1052 108.09 33 105C29.1806 103.634 25.7921 105.498 22 106.402C18.7283 107.182 15.3384 107 12 107z"/>
</svg>
