<?xml version="1.0" standalone="yes"?>
<svg xmlns="http://www.w3.org/2000/svg" width="34" height="100">
<path style="fill:#feffff; stroke:none;" d="M0 0L1 91C4.93505 85.8059 4.03883 74.5599 5.2608 68C7.75043 54.6349 7.16039 41.4917 8.08951 28C8.73643 18.606 10.6374 9.26823 12 0L0 0z"/>
<path style="fill:#fffff0; stroke:none;" d="M12 0C7.64861 19.036 8.48989 38.7193 6 58C10.3071 54.3764 8.99171 46.1556 9 41C9.02194 27.3508 12.3695 14.3811 14 1C18.1466 3.23204 18.657 6.61211 19.6505 11C21.3361 18.4448 22.6723 26.3684 23 34C25.1298 30.7428 24.1975 27.7494 24.0394 24C23.6852 15.6047 20.7188 8.24354 20 0L12 0z"/>
<path style="fill:#fefefe; stroke:none;" d="M20 0C20.2872 6.28413 23.3192 11.8242 23.8958 18C24.548 24.9847 23.6416 32.0363 24.0903 39C24.6429 47.5775 26.1478 56.4568 27.1844 65C28.2343 73.653 33.0249 83.0886 30.6821 91.9599C28.4201 100.525 11.726 99.4938 6.58873 94.2971C2.91022 90.576 4 82.7585 4 78C2.32672 81.9876 3.01584 86.7332 2 91C0.836897 86.9517 1.87765 83.0507 1 79C-1.50049 84.959 0 93.5639 0 100L34 100L34 0L20 0z"/>
<path style="fill:#dfd2a7; stroke:none;" d="M14 1C13.3488 6.04286 12.1054 10.8911 12 16C13.2321 13.4393 13.635 10.8219 14 8L17 9C17.4466 5.11593 18.1581 2.39371 14 1z"/>
<path style="fill:#f5ce8c; stroke:none;" d="M17 5C16.4201 9.58836 15.9172 13.4394 17 18C18.5909 14.2087 18.5909 8.79129 17 5z"/>
<path style="fill:#f3e2c1; stroke:none;" d="M18 5L18 8C18.6961 6.44631 18.6961 6.5537 18 5z"/>
<path style="fill:#f6e8c6; stroke:none;" d="M12 6L12 10C12.7102 8.24052 12.7102 7.75949 12 6z"/>
<path style="fill:#f3db9f; stroke:none;" d="M14 8C12.0313 18.1865 12.8857 27.7327 13.0039 38C13.0595 42.8346 14.3518 47.093 11 51L12 56L18 56L14 57C16.6127 58.0977 19.1645 57.9928 22 58C21.9379 56.2613 22.4777 55.625 23 54C19.816 54 20.759 46.0462 20.1667 43C17.9515 31.6077 16 19.7941 16 8L14 8z"/>
<path style="fill:#dab992; stroke:none;" d="M18 8C18.0047 15.0232 20.0746 21.1337 21 28C23.1586 22.8073 21.1304 12.5561 18 8z"/>
<path style="fill:#f4e3c5; stroke:none;" d="M11.3333 14.6667C11.2778 14.7222 11.2222 15.7778 11.6667 15.3333C11.7222 15.2778 11.7778 14.2222 11.3333 14.6667z"/>
<path style="fill:#eadac3; stroke:none;" d="M20.3333 14.6667C20.2778 14.7222 20.2222 15.7778 20.6667 15.3333C20.7222 15.2778 20.7778 14.2222 20.3333 14.6667z"/>
<path style="fill:#ecc891; stroke:none;" d="M11 16L11 51C14.4351 48.3822 13.5242 44.9348 13.169 41C12.6659 35.4277 12.6181 29.5922 12.4545 24C12.3592 20.7442 12.9668 18.7 11 16z"/>
<path style="fill:#e7c194; stroke:none;" d="M18 17C15.1159 25.9499 18.7139 36.1334 20.3935 45C20.9293 47.8285 19.9593 53.4932 23 54L21 57L26 61C25.9992 53.707 24.7979 46.9702 23.7014 39.8302C22.5089 32.0651 22.2325 23.9296 18 17z"/>
<path style="fill:#ebd7b9; stroke:none;" d="M10 20L10 24C10.7102 22.2405 10.7102 21.7595 10 20z"/>
<path style="fill:#e3c79c; stroke:none;" d="M10 24C10 36.2128 8.95701 47.8734 8 60C11.3569 58.6796 14.4002 57.496 18 57C15.9479 56.1258 14.2528 56.0472 12 56C11.4957 49.6101 11 43.4343 11 37C11 32.7397 11.6611 27.9586 10 24z"/>
<path style="fill:#dcceaf; stroke:none;" d="M9 32L9 48C10.8123 43.6811 10.8123 36.3189 9 32z"/>
<path style="fill:#efdfc6; stroke:none;" d="M23.3333 34.6667C23.2778 34.7222 23.2222 35.7778 23.6667 35.3333C23.7222 35.2778 23.7778 34.2222 23.3333 34.6667z"/>
<path style="fill:#cdb089; stroke:none;" d="M23 38L23 42C23.7102 40.2405 23.7102 39.7595 23 38z"/>
<path style="fill:#f3dbbc; stroke:none;" d="M25 48L25 51C25.6961 49.4463 25.6961 49.5537 25 48z"/>
<path style="fill:#f6e0c8; stroke:none;" d="M8 53L8 56C8.6961 54.4463 8.6961 54.5537 8 53z"/>
<path style="fill:#f2d8b3; stroke:none;" d="M26 56L26 61C23.5582 59.2247 21.9775 58.4321 19 58C20.9803 59.9099 22.0841 61.3997 23 64C24.1954 63.4023 23.9774 63.5339 25 62L26 66C27.3457 62.793 27.3457 59.207 26 56z"/>
<path style="fill:#e8dccc; stroke:none;" d="M7 58C5.91778 66.0368 4.74719 72.8515 4.98611 81C5.15595 86.7924 5.94158 92.4858 12.0154 94.99C17.8212 97.3836 24.0646 93.6836 30 96C33.2998 84.8363 29.6057 72.1974 25 62C23.7003 62.6498 24 62.1468 24 64C19.5603 55.6724 14.0737 60.2622 7 58z"/>
<path style="fill:#fffff2; stroke:none;" d="M14 64C15.458 65.0811 16.248 65.4361 18 66C16.686 64.3821 16.1228 64.3067 14 64z"/>
<path style="fill:#faf1e2; stroke:none;" d="M11 71C13.8897 72.2129 16.8741 71.9983 20 72L20 69L11 71z"/>
<path style="fill:#c8c3bd; stroke:none;" d="M4 75L4 88C5.59089 84.2087 5.59089 78.7913 4 75z"/>
<path style="fill:#d5cec9; stroke:none;" d="M4 88L5 94C11.6091 96.6904 24.3913 102.358 29 94C23.915 94.9446 16.8618 96.9664 12.0154 94.5394C8.84326 92.9507 6.93892 89.8521 4 88z"/>
<path style="fill:#eae6dd; stroke:none;" d="M5 94C6.13935 95.0154 6.61157 95.3087 8 96C7.01976 94.2167 7.09241 94.4057 5 94z"/>
</svg>
