<?xml version="1.0" standalone="yes"?>
<svg xmlns="http://www.w3.org/2000/svg" width="35" height="103">
<path style="fill:#feffff; stroke:none;" d="M0 0L0 76C2.82758 72.9823 2.96348 70.0349 3 66C3.64379 68.1059 3.90586 69.7951 4 72C8.12546 66.8059 6.32923 58.4214 7.05015 52C8.39365 40.0332 6.79175 27.9099 8.12886 16C8.74193 10.5392 11.2836 5.41489 12 0L0 0z"/>
<path style="fill:#fffefc; stroke:none;" d="M12 0L12 4L16 2C19.7943 15.3708 24.9457 28.2248 27.385 42C28.8605 50.3323 28.2781 58.6655 29.1736 67C29.9289 74.0296 34.0671 80.7898 32.6196 88C31.3568 94.2901 24.0862 101.939 17 100.088C13.0352 99.0521 9.36712 95.1692 7.05478 91.9606C1.32584 84.0114 4.36618 75.1144 4 66C-1.09047 77.7708 0 90.4025 0 103L35 103L35 0L12 0z"/>
<path style="fill:#ded0bd; stroke:none;" d="M14.6667 2.33334C14.2222 2.77776 15.2778 2.72223 15.3333 2.66666C15.7778 2.22223 14.7222 2.27778 14.6667 2.33334z"/>
<path style="fill:#c9bba0; stroke:none;" d="M12 6L17 6C16.1809 2.17755 13.3961 2.85481 12 6z"/>
<path style="fill:#fffdf2; stroke:none;" d="M10 4C9.87977 8.15753 8.3343 11.8954 8.05401 16C7.41894 25.3001 8.54752 34.6976 7.91049 44C7.39797 51.4843 5.22627 58.5464 7 66C9.42979 60.9439 8.64489 55.4293 9.28549 50C10.4252 40.3405 9.61407 30.6979 10.0394 21C10.2903 15.2775 11.8814 9.74619 12 4L10 4z"/>
<path style="fill:#e4cda0; stroke:none;" d="M14 5L13 6L13 8C16.127 10.9517 17.3558 14.7282 20 18C20.3291 12.8775 18.6699 7.51184 14 5z"/>
<path style="fill:#bfa781; stroke:none;" d="M12 6L12 11C12.8299 8.96951 12.8299 8.03047 12 6z"/>
<path style="fill:#f1ce96; stroke:none;" d="M13 8C12.5134 10.9195 13.0434 10.5109 11 10C12.1519 16.2083 10.9606 21.7782 11.0046 28C11.0967 41.0186 11 53.9602 11 67L14 66C10.9888 60.5841 12.951 54.9156 13 49L14 51C17.9095 41.6833 13.3339 31.4438 14.0586 22.0147C14.5023 16.2428 19.3983 12.1588 13 8z"/>
<path style="fill:#c4af8e; stroke:none;" d="M11 12L10 41C12.0349 36.1505 10.7338 30.1942 11.0895 25C11.3938 20.5567 12.7801 16.2437 11 12z"/>
<path style="fill:#fbe0b3; stroke:none;" d="M17 14C14.4887 26.8692 20.7287 41.8574 21 55L23 55C23 42.0037 25.7526 24.8338 17 14z"/>
<path style="fill:#ecdec4; stroke:none;" d="M20.3333 14.6667C20.2778 14.7222 20.2222 15.7778 20.6667 15.3333C20.7222 15.2778 20.7778 14.2222 20.3333 14.6667z"/>
<path style="fill:#f7e2c0; stroke:none;" d="M10 16L10 19C10.6961 17.4463 10.6961 17.5537 10 16z"/>
<path style="fill:#f2db98; stroke:none;" d="M14 17L15 51L14 49C12.219 53.1287 10.2708 61.7413 14 65C12.9644 66.1863 12.6613 66.6036 12 68C17.0129 67.5784 21.9871 67.5784 27 68C25.5143 62.579 25.4426 56.6082 25 51C23.2838 55.0807 23.1909 60.5546 23 65C16.3682 65.762 13.7079 63.8614 13 57C13.9857 58.4785 14 58.2032 14 60C17.9144 57.4033 17.9762 53.4224 17.9992 49C18.037 41.756 18.576 34.199 17.7145 27C17.2598 23.2006 17.2554 19.2997 14 17z"/>
<path style="fill:#d1bda3; stroke:none;" d="M20 17C20.6664 23.6863 23.1746 30.5195 25 37C26.9117 31.6558 23.511 21.2688 20 17z"/>
<path style="fill:#fad9a4; stroke:none;" d="M22 30C23.5272 38.2263 23 46.6612 23 55L21 55C20.9361 47.2862 19.159 39.704 19 32C15.8605 37.449 18.7296 46.7286 17.9167 53C17.6266 55.2373 15.8369 60.8227 14 57C11.2177 64.2023 17.1849 66.0621 23 65C23.7687 55.2593 28.7334 38.226 22 30z"/>
<path style="fill:#e4c49b; stroke:none;" d="M11 34C11 42.7391 9.85982 51.2949 9.82176 60C9.81027 62.6277 8.38934 66.2237 10.0417 68.5918C12.0519 71.4728 15.7491 69.2187 18 68C16.0913 67.3216 13.3198 67.3894 12.027 65.5934C9.84618 62.5637 11.3184 57.3571 11.7145 54C12.4036 48.1599 13.2871 39.4503 11 34z"/>
<path style="fill:#e6c196; stroke:none;" d="M25 37C24.1444 44.2039 25.182 50.8236 25.6289 58C25.8547 61.6269 24.8876 64.5982 28 67C27.917 56.9706 25.1532 46.9537 27 37L25 37z"/>
<path style="fill:#d2ae8e; stroke:none;" d="M26 39C26.0064 48.7089 27.9197 58.3056 28 68C29.7677 63.7873 28.5902 59.4146 28.1698 55C27.6561 49.6064 28.2668 44.0495 26 39z"/>
<path style="fill:#b29f7a; stroke:none;" d="M10 41L10 46C10.8299 43.9695 10.8299 43.0305 10 41z"/>
<path style="fill:#e9d6c5; stroke:none;" d="M27 42L27 45C27.6961 43.4463 27.6961 43.5537 27 42z"/>
<path style="fill:#e9d3b6; stroke:none;" d="M9 48L9 53C9.82989 50.9695 9.82989 50.0305 9 48z"/>
<path style="fill:#dbbea8; stroke:none;" d="M28 51L28 58C29.0595 55.4657 29.0595 53.5343 28 51z"/>
<path style="fill:#d4b99f; stroke:none;" d="M9 56C8.56377 61.4817 6.5405 66.5711 6 72L11 72C9.38724 66.6906 11.0576 60.9145 9 56z"/>
<path style="fill:#ebdac8; stroke:none;" d="M13 70L14 74L7 74C6.82633 77.3911 5.44751 80.6515 5.41435 84C5.32776 92.7436 11.3204 100.034 20 101L20 98C28.9872 96.6092 31.5065 86.1289 30.2778 78.0895C29.8127 75.0465 28.6243 73.1691 29 70C23.0786 66.6115 19.1105 67.7982 13 70z"/>
<path style="fill:#d8c6b8; stroke:none;" d="M27 67C27.4057 69.0924 27.2167 69.0198 29 70C28.3164 68.42 28.1952 68.2228 27 67z"/>
<path style="fill:#ded1c8; stroke:none;" d="M29 69C28.1548 72.9595 29.6172 75.2139 30.0185 79.0394C30.8428 86.8973 28.1227 95.7135 20 98L20 100C35.4964 98.2832 34.8285 79.726 29 69z"/>
<path style="fill:#e1cdb5; stroke:none;" d="M5 70C4.54468 73.8585 3.63089 77.4236 7 80L7 74L14 74L13 70C9.87793 71.3967 7.81407 72.1105 5 70z"/>
<path style="fill:#fde9df; stroke:none;" d="M16 70C16.2107 72.7386 16.3025 73.422 19 74C18.2235 71.8683 17.8698 71.2292 16 70z"/>
<path style="fill:#cdc9bf; stroke:none;" d="M4 77C2.44254 82.2809 2.83795 87.1537 7 91C6.26474 86.5855 6.19405 80.8447 4 77z"/>
<path style="fill:#eae6dd; stroke:none;" d="M32.3333 80.6667C32.2778 80.7222 32.2222 81.7778 32.6667 81.3333C32.7222 81.2778 32.7778 80.2222 32.3333 80.6667z"/>
</svg>
