<?xml version="1.0" standalone="yes"?>
<svg xmlns="http://www.w3.org/2000/svg" width="32" height="92">
<path style="fill:#fffef9; stroke:none;" d="M0 0L0 92L32 92L32 42C29.6175 44.9073 29.0129 48.4059 28 52L26 52C24.9549 46.3705 25.5766 36.9333 21 33C22.1372 28.499 20.6982 24.5398 20.3248 20C20.0271 16.3792 20.7111 12.6151 21 9C18.5704 7.65314 16.6373 5.85257 14 5C13.6722 -1.83025 5.10289 0 0 0z"/>
<path style="fill:#feffff; stroke:none;" d="M13 0C13.5658 1.77302 13.928 3.15777 14 5L21 9C19.3422 17.2029 22.2736 24.9922 21 33C25.0246 38.2247 24.5207 45.7893 26 52L28 52C34.2101 35.5679 32 17.3362 32 0L13 0z"/>
<path style="fill:#dfc89f; stroke:none;" d="M7 2C7 8.21128 6.54408 14.1798 9 20C11.5527 14.3136 12.6077 6.0807 7 2z"/>
<path style="fill:#cdb39a; stroke:none;" d="M9 2C9.3972 4.30126 9.95704 5.90452 11 8C11.5069 5.9201 11.2369 4.16231 11 2L9 2z"/>
<path style="fill:#dec7a5; stroke:none;" d="M11 4C12.5799 9.95661 14.7168 15.8017 15 22C18.3481 16.2989 15.611 8.21537 11 4z"/>
<path style="fill:#fdefdc; stroke:none;" d="M14 6L15 11C15.6513 8.76587 15.3182 7.92614 14 6z"/>
<path style="fill:#e6c092; stroke:none;" d="M12 8C11.1035 10.6376 10.5306 13.2623 10 16L15 19C14.4519 15.2722 13.6419 11.3889 12 8z"/>
<path style="fill:#fff2db; stroke:none;" d="M7 16L7 41C9.41293 35.2497 9.41294 21.7503 7 16z"/>
<path style="fill:#efcda2; stroke:none;" d="M10 16L9 22C11.2396 24.3759 11.4466 26.8249 12 30C12.9845 27.6684 12.9813 25.5433 13 23C17.3348 28.9577 19.7847 39.6169 20 47C25.3184 40.6163 19.0225 27.5935 18 20L16 23C14.6315 19.5457 13.3402 17.6664 10 16z"/>
<path style="fill:#ccbb8f; stroke:none;" d="M8 19L8 41C10.2187 35.7127 10.2187 24.2873 8 19z"/>
<path style="fill:#f4e1c0; stroke:none;" d="M16 19L16 23C16.9114 21.6234 17.4038 20.5601 18 19L16 19z"/>
<path style="fill:#eacc92; stroke:none;" d="M9 22C9 32.7467 9.54095 43.3085 10 54L18 53L18 45L20 46C19.8057 39.4194 17.7472 27.5959 13 23L13 30C11.8718 26.9367 11.6915 23.9655 9 22z"/>
<path style="fill:#ddbe8f; stroke:none;" d="M7 41C7 45.3865 6.25079 50.7595 8.14815 54.8519C10.025 58.9 16.3454 59.0378 19 56L23 57L24 48C23.0886 49.3765 22.5962 50.4399 22 52C21.5779 49.5304 21.7313 47.5038 22 45C20.1524 46.0777 20.0338 45.9491 18 45L18 53L13 53L15 56C8.91302 54.0774 9.11438 46.5418 9 41L7 41z"/>
<path style="fill:#d6af80; stroke:none;" d="M22 44L21 52C22.9932 49.3692 23.275 47.0695 22 44z"/>
<path style="fill:#f6e6ce; stroke:none;" d="M23.3333 46.6667C23.2778 46.7222 23.2222 47.7778 23.6667 47.3333C23.7222 47.2778 23.7778 46.2222 23.3333 46.6667z"/>
<path style="fill:#b5a48d; stroke:none;" d="M23 52L23 60C24.1614 57.2301 24.1614 54.7698 23 52z"/>
<path style="fill:#c1b29d; stroke:none;" d="M7 53C7.07695 55.6451 6.99663 57.266 9 59C8.64531 56.6585 8.2247 55.0132 7 53z"/>
<path style="fill:#d2ad7e; stroke:none;" d="M11 54L11 56L15 56L15 54L11 54z"/>
<path style="fill:#c8b398; stroke:none;" d="M19 56C20.2259 58.0347 20.7026 58.3265 23 59C21.7776 57.267 20.9912 56.8486 19 56z"/>
<path style="fill:#e6cdae; stroke:none;" d="M9 58C12.4324 59.4403 16.2998 59 20 59C16.5676 57.5597 12.7002 58 9 58z"/>
<path style="fill:#e5ded6; stroke:none;" d="M5 83C3.51284 76.4114 2.9912 68.2464 8 63C7.63722 65.2317 7.63722 66.7683 8 69L6 68C6.77656 74.23 4.01347 78.8396 9 84C7.96442 85.1863 7.66135 85.6036 7 87C14.5673 91.6556 18.8161 89.5482 25.2847 84.2292C27.3949 82.494 29.9798 80.6274 30.6667 77.8295C31.5414 74.2663 29.5714 70.1589 28.1343 67C26.9369 64.3683 25.532 61.4899 22.8951 60.0278C19.5643 58.181 8.86989 57.6358 6.07485 60.6034C1.46932 65.4933 -2.05853 79.2994 5 83z"/>
<path style="fill:#ece8df; stroke:none;" d="M6 63C3.83887 69.9358 2.7854 75.9992 5 83C3.36484 82.4549 3.54505 82.6352 3 81C1.90236 85.1594 5.74145 85.5843 9 85C7.74155 82.5364 6.01733 79.9143 5.79167 77.0895C5.53406 73.865 6.71246 71.3342 6 68L8 69L8 63L6 63z"/>
<path style="fill:#fff9f5; stroke:none;" d="M9 72L9 79L12 79L12 72L9 72z"/>
<path style="fill:#efe9e0; stroke:none;" d="M9 79L10 87C11.8698 85.7708 12.2235 85.1317 13 83L11 83L12 79L9 79z"/>
</svg>
