<?xml version="1.0" standalone="yes"?>
<svg xmlns="http://www.w3.org/2000/svg" width="32" height="95">
<path style="fill:#fffffc; stroke:none;" d="M0 0L0 95L32 95L32 66L29 69L30 65C28.7003 65.6498 29 65.1468 29 67C28.0143 65.5215 28 65.7968 28 64C25.7768 70.2148 31.5847 76.5211 28.7215 82.9105C27.3627 85.9426 24.1737 91.2292 20.8951 92.3534C14.5142 94.5413 5.61632 86.7657 4.59491 80.9961C3.38761 74.1766 5.31192 69.4911 6.44136 63C7.9622 54.2594 8.46943 43.9403 8.86034 35C9.37694 23.185 4.84231 11.6223 7 0L0 0z"/>
<path style="fill:#fffaeb; stroke:none;" d="M6 60L8 60C8.24877 47.9475 10.1409 36.1691 9.99614 24C9.91217 16.9405 8.05853 10.0702 8 3L12 4L13 1C7.33918 -0.192871 5.8694 2.4837 6.04321 8C6.32858 17.057 8.89747 25.7801 8.67515 35C8.47283 43.3908 6.35908 51.6368 6 60z"/>
<path style="fill:#fefffe; stroke:none;" d="M11 0C12.1927 1.90826 11.9563 3.81331 13 5.83334C15.003 9.71004 18.2731 12.6374 19.6667 17C24.7869 33.0285 23.4212 50.974 28 67C29.2997 66.3502 29 66.8532 29 65C29.2239 66.6839 29.2183 67.3135 29 69C33.7678 65.3704 32 56.4212 32 51L32 0L11 0z"/>
<path style="fill:#e3d8c3; stroke:none;" d="M8 6L11 4C8.8603 2.88224 8.47324 3.74921 8 6z"/>
<path style="fill:#dac098; stroke:none;" d="M9 4C7.24558 11.6345 10.6256 19.2797 10.9606 27C11.3812 36.6889 9.00107 46.2923 9 56C10.2052 53.53 10.2844 50.674 11.1759 48.0046C12.5137 43.9991 14.8608 40.3647 14.9167 36.0185C14.9721 31.7042 13.176 28.5305 13.7407 24C14.1828 20.454 14.1706 11.6768 10 11L11 6C12.6157 7.64016 14.0415 8.7939 16 10C14.3691 6.7262 12.4465 5.19858 9 4z"/>
<path style="fill:#ece0cc; stroke:none;" d="M11.6667 4.33334C11.2222 4.77777 12.2778 4.72222 12.3333 4.66666C12.7778 4.22222 11.7222 4.27779 11.6667 4.33334z"/>
<path style="fill:#f5d89e; stroke:none;" d="M11 6L10 11C12.4438 11 13.1921 15.4349 13.8333 18C14.8523 22.0759 12.3751 25.9379 13 30C13.5511 33.5824 15 36.0288 15 40C16.3142 39.2321 16.2321 39.3142 17 38C17.8102 40.729 17.9791 43.1505 18 46C21.7001 40.1369 20.7747 33.5998 22 27C19.649 27 20.0652 26.3476 20 24C19.317 25.506 19.1741 26.3148 19 28C16.7874 21.0057 16.5968 11.2528 11 6z"/>
<path style="fill:#e8c89a; stroke:none;" d="M14 9C14.8796 15.5003 17.7118 21.3898 18 28C20.383 22.3083 19.3995 12.4234 14 9z"/>
<path style="fill:#ede1cb; stroke:none;" d="M9 15L9 18C9.69611 16.4463 9.6961 16.5537 9 15z"/>
<path style="fill:#cdbd9b; stroke:none;" d="M18 16L20 28C21.7152 23.8739 20.6108 19.5086 18 16z"/>
<path style="fill:#f3e2c9; stroke:none;" d="M19.3333 16.6667C19.2778 16.7222 19.2222 17.7778 19.6667 17.3333C19.7222 17.2778 19.7778 16.2222 19.3333 16.6667z"/>
<path style="fill:#e7d0bb; stroke:none;" d="M10 22L10 27C10.8299 24.9695 10.8299 24.0305 10 22z"/>
<path style="fill:#ffe8d3; stroke:none;" d="M10 27L10 37C11.3457 33.793 11.3457 30.207 10 27z"/>
<path style="fill:#cebda4; stroke:none;" d="M21 29L22 45C23.9876 40.2633 23.1996 33.5771 21 29z"/>
<path style="fill:#ecc795; stroke:none;" d="M21 35C20.8869 38.8799 19.5007 42.2153 19 46C18.1898 43.271 18.0209 40.8495 18 38C16.4329 38.6977 15.7142 38.8739 14 39C12.656 44.9467 10.0563 49.7017 10 56C9.01433 54.5215 9 54.7968 9 53C7.90228 55.6127 8.00722 58.1645 8 61C10.8453 60.9251 25.3448 59.4543 22 58C23.6304 56.0003 24.3384 54.4978 25 52C21.1623 52 24.2978 48.7425 23.8333 46.1667C23.6162 44.9626 22.4067 44.224 22.1667 43C21.6059 40.1402 22.6126 37.2174 21 35z"/>
<path style="fill:#f0dfc8; stroke:none;" d="M23.3333 43.6667C23.2778 43.7222 23.2222 44.7778 23.6667 44.3333C23.7222 44.2778 23.7778 43.2222 23.3333 43.6667z"/>
<path style="fill:#cab393; stroke:none;" d="M23 48L23 53C23.8299 50.9695 23.8299 50.0305 23 48z"/>
<path style="fill:#c7b796; stroke:none;" d="M24 54L22 58C23.2451 59.1982 23.0738 59.1338 23 61C24.8272 58.5884 25.1497 56.8312 24 54z"/>
<path style="fill:#d6c3b0; stroke:none;" d="M25 58L24 61L20 60C21.8857 61.643 23.7925 62.8088 26 64C25.9528 61.7472 25.8742 60.0521 25 58z"/>
<path style="fill:#e2d6c6; stroke:none;" d="M7 60C5.17543 68.8874 6.1272 77.0731 5 86C13.2267 89.6212 19.6542 97.7411 26.4715 87.2855C27.7911 85.2616 28.0973 84.3325 28 82C24.9336 84.7258 23.1988 87.1394 19 88C26.3212 83.4332 22.9391 72.3758 22 65C19.1639 65.9454 18.9121 66.0879 17 68L17 66C15.5597 69.4324 16 73.2998 16 77L13 77L13 66C6.89816 69.5252 8.16806 80.5547 11 86C3.84736 78.4527 10.4278 68.4009 7 60z"/>
<path style="fill:#e9d5bc; stroke:none;" d="M8 63C10.8101 62.441 13.1454 62.2087 15 60C12.0762 60.4063 9.87543 60.6767 8 63z"/>
<path style="fill:#e8e0da; stroke:none;" d="M11 86C10.2321 84.6858 10.3142 84.7679 9 84C10.2844 80.1467 6.92308 74.1538 9 70C9.80108 68.3978 11.9892 67.2634 13 66C14.2121 64.4848 11.3648 65.073 11 65C16.1036 65.6162 15 72.8925 15 77C16.4403 73.5676 16 69.7002 16 66C17.0226 67.5339 16.8046 67.4023 18 68C19.3372 66.7203 20.3998 65.9696 22 65C22.4366 71.5845 25.9225 83.4664 19 87C23.3149 88.4994 26.483 85.0287 27.5887 80.9097C29.256 74.6991 29.1859 65.4957 22.9421 61.9198C7.98386 53.353 0.909979 78.751 11 86z"/>
<path style="fill:#f7eee5; stroke:none;" d="M11 64C13.313 68.1591 13 72.3536 13 77L15 77C15 72.4338 16.3129 65.5541 11 64z"/>
<path style="fill:#eae4e1; stroke:none;" d="M4 68L4 81C5.59089 77.2087 5.59089 71.7913 4 68z"/>
<path style="fill:#cac5c1; stroke:none;" d="M28 74L28 83C29.2561 80.0059 29.2561 76.9941 28 74z"/>
<path style="fill:#cbc4be; stroke:none;" d="M5 75L5 83C6.16138 80.2301 6.16138 77.7699 5 75z"/>
<path style="fill:#eeebe6; stroke:none;" d="M29 76L29 82C29.9511 79.7147 29.9511 78.2853 29 76z"/>
<path style="fill:#efeae6; stroke:none;" d="M5 86C6.13935 87.0154 6.61157 87.3087 8 88C7.01975 86.2167 7.09241 86.4057 5 86z"/>
</svg>
