<?xml version="1.0" standalone="yes"?>
<svg xmlns="http://www.w3.org/2000/svg" width="55" height="87">
<path style="fill:#fefefc; stroke:none;" d="M0 0C0 4.45036 -0.642437 9.46203 0.27392 13.8302C1.01399 17.3581 3.3488 20.5556 4.47994 24C7.56403 33.3914 9.76069 43.2023 11 53C13.5288 46.9737 11.5938 39.0976 10 33C7.33654 22.8101 4.19255 13.6021 5 3C7.90804 3.74734 9.67287 5.13868 12 7C19.0339 2.16547 22.4329 9.42289 26 15C27.9811 12.2843 26.7441 9.28255 28.4074 6.56867C29.7758 4.33596 32.6906 3.72021 35 3L40 13C37.4401 13.4538 38.8599 15.7764 39.4722 18C40.6473 22.2677 41.521 26.6205 42.1157 31C43.1496 38.613 43.3342 46.5838 45.5602 54C47.744 61.2755 53.3775 68.1481 52.9352 76C52.7019 80.1414 50.6197 85.0432 46 85.7176C43.1077 86.1398 39.8556 84.4281 37 84C38.1361 89.302 50.4015 87 55 87L55 0L0 0z"/>
<path style="fill:#d4c1a0; stroke:none;" d="M5 3C5 8.08147 4.8168 13.0302 6 18C8.65606 15.3439 4.46209 8.42239 8 4L9 5C7.68599 3.38208 7.12277 3.30674 5 3z"/>
<path style="fill:#fffbea; stroke:none;" d="M29 4L37 13L40 13C38.8568 9.33327 36.972 6.27688 35 3L29 4z"/>
<path style="fill:#edce97; stroke:none;" d="M7 4C5.65447 9.65421 6.6071 15.2585 6 21C7.19542 20.4023 6.9774 20.5339 8 19C10.9133 29.3426 13.9988 39.1896 14 50C15.2997 49.3502 15 49.8532 15 48L16 52C19.7072 51.1611 23.2038 50.4483 27 50C26.861 43.303 24.6441 37.1064 22 31C19.4126 35.8923 21.9417 40.7363 22 46C17.8326 42.3255 17.2312 37.3703 17 32C16.3152 33.2483 16.2512 33.5484 16 35C14.4408 30.1142 11.6846 25.0095 11 20L13 20C13.1759 21.8782 13.4382 23.1994 14 25C15.7565 21.2534 15.3555 17.8306 14 14L10 16L9 8L11 9L11 5L7 4z"/>
<path style="fill:#e2caa8; stroke:none;" d="M13 5C15.9555 6.62679 18.561 7.55569 21 10C21.6842 4.94904 17.0388 3.93419 13 5z"/>
<path style="fill:#ebdecd; stroke:none;" d="M29.6667 5.33334C29.2222 5.77776 30.2778 5.72221 30.3333 5.66666C30.7778 5.22221 29.7222 5.27779 29.6667 5.33334z"/>
<path style="fill:#ddbd84; stroke:none;" d="M12 6C12.3783 14.1599 16.6614 26.7093 23 32C23.4981 26.0994 19.3956 22.1574 20 16C17.9619 14.3777 16.4603 12.8374 14 12C13.968 9.92377 13.774 8.60555 15 7C13.7516 6.31519 13.4516 6.25121 12 6z"/>
<path style="fill:#ffe0aa; stroke:none;" d="M15 6C16.8621 10.1556 19.0204 13.679 23 16C21.9213 12.9638 20.6037 10.1751 20 7L15 6z"/>
<path style="fill:#fff8e3; stroke:none;" d="M27 6C27.2615 9.84641 25.8677 15.5538 29 18L29 6L27 6z"/>
<path style="fill:#d2b793; stroke:none;" d="M29 6L30 20C31.5936 17.2995 31.4739 14.1229 32 11L34 11C35.8685 15.6791 38.4211 19.9989 39.4823 25C40.9345 31.8442 40.25 39.1008 41.2091 46C41.865 50.7184 43.5954 55.2273 44 60C48.9569 58.9157 44.4524 49.9083 44 46C42.9074 36.56 42.0539 27.1371 39.3889 18C37.7906 12.5203 35.0219 7.06268 29 6z"/>
<path style="fill:#e9dfc6; stroke:none;" d="M4 7L4 12C4.8299 9.96952 4.8299 9.03048 4 7z"/>
<path style="fill:#f3ddac; stroke:none;" d="M11 7C10.2736 9.17919 10.5605 8.78027 9 8C9.11744 10.7301 9.49917 13.3142 10 16L13 16C12.8585 12.7481 12.5346 9.88556 11 7z"/>
<path style="fill:#f0ca96; stroke:none;" d="M13 7L14 12L20 16C18.9041 11.8401 17.2428 8.39709 13 7z"/>
<path style="fill:#d4bc9a; stroke:none;" d="M20 9C21.7446 14.5111 24.6843 19.4617 30 22C27.6955 17.0848 24.6208 11.979 20 9z"/>
<path style="fill:#f0e0c6; stroke:none;" d="M23 10L24 14C24.393 12.076 24.1456 11.6404 23 10z"/>
<path style="fill:#e9cb97; stroke:none;" d="M32 11C30.1299 19.138 32.3343 28.0836 33.7407 36.0895C34.6457 41.241 34.3383 46.7645 35 52C37.7822 45.3071 34.6477 34.4237 35 27C32.649 27 33.0652 26.3476 33 24L34 26C35.1114 22.2942 33.3333 19.2792 36 16C36.7396 21.4659 38.8699 26.4394 39 32C41.8871 25.1043 37.4011 16.9521 34 11L32 11z"/>
<path style="fill:#fff1cc; stroke:none;" d="M29 14C28.7993 16.4187 28.7283 18.591 29 21C30.0595 18.4657 30.0595 16.5343 29 14z"/>
<path style="fill:#f8d998; stroke:none;" d="M20 15C20.8099 18.5694 21.9941 21.8149 25 24C24.017 19.9432 24.1948 16.686 20 15z"/>
<path style="fill:#fefefe; stroke:none;" d="M0 16L0 87L37 87C35.507 78.3219 27.756 83.0939 22 83.581C17.536 83.9588 11.5897 81.5873 9.0054 77.8673C3.21729 69.5355 9.29483 63.2342 10.6667 55C12.1707 45.9721 7.78733 35.6088 5.58642 27C4.53657 22.8936 3.61288 18.4652 0 16z"/>
<path style="fill:#eedaa3; stroke:none;" d="M34 16C33.4574 19.5955 34.2068 22.4882 35 26L34 24C32.9361 25.8813 32.7633 27.0149 35 27C33.8155 35.2997 35.8286 43.6941 36 52L38 52C37.6782 43.9893 39.2483 35.9045 38.8565 28C38.6557 23.9501 36.8287 19.964 36 16L34 16z"/>
<path style="fill:#e9cfb5; stroke:none;" d="M39.3333 17.6667C39.2778 17.7222 39.2222 18.7778 39.6667 18.3333C39.7222 18.2778 39.7778 17.2222 39.3333 17.6667z"/>
<path style="fill:#e5c785; stroke:none;" d="M20 18C17.7746 27.2044 30.0324 31.2396 29 40C27.2475 38.6697 26.3303 37.7525 25 36C23.9554 40.2517 26.801 45.448 27 50L19 50C21.3485 56.1961 26.4304 55.3296 32 56.7045C36.6393 57.8497 40.156 60.033 45 59C41.5802 50.0781 41.7111 41.2166 40 32C37.0245 39.0909 40.224 49.791 42 57L36 56C34.9828 43.5461 32 31.5171 32 19C30.8048 20.2228 30.6836 20.42 30 22L24 18C24.0941 20.2049 24.3562 21.8941 25 24L20 18z"/>
<path style="fill:#d1be9d; stroke:none;" d="M7 19C7.11677 23.9901 8.86492 28.2079 10 33C11.7155 28.6032 9.91071 22.5518 7 19z"/>
<path style="fill:#f1dba1; stroke:none;" d="M11 20C11.3737 25.3832 14.7142 29.5032 15 35C15.6848 33.7516 15.7488 33.4516 16 32C17.5882 37.0224 17.05 43.1105 22 46C21.9679 36.64 18.3929 28.9311 17 20L15 20L15 25C13.9519 23.1441 13.4875 22.0558 13 20L11 20z"/>
<path style="fill:#eedabb; stroke:none;" d="M9.33333 30.6667C9.27776 30.7222 9.22223 31.7778 9.66667 31.3333C9.72221 31.2778 9.77778 30.2222 9.33333 30.6667z"/>
<path style="fill:#d6aa79; stroke:none;" d="M23 30C23.3171 34.7242 24.7078 37.7986 29 40C30.2205 34.9525 27.5371 31.9864 23 30z"/>
<path style="fill:#ddc599; stroke:none;" d="M11 32C10.2317 37.1718 12.2355 42.7684 12.8349 48C13.0854 50.187 12.9607 52.7049 14.6034 54.4113C17.8186 57.7511 25.6725 57.9102 30 58C26.4762 55.2127 20.4848 52.6368 16 52L16 48C14.7003 48.6498 15 48.1468 15 50C13.2394 44.0438 14.7005 37.3251 11 32z"/>
<path style="fill:#f1ce93; stroke:none;" d="M38 32C37.9991 40.197 37.0533 47.9951 36 56L42 57C40.5472 49.289 40.9606 39.0555 38 32z"/>
<path style="fill:#e9d3bf; stroke:none;" d="M42.3333 33.6667C42.2778 33.7222 42.2222 34.7778 42.6667 34.3333C42.7222 34.2778 42.7778 33.2222 42.3333 33.6667z"/>
<path style="fill:#e9dec0; stroke:none;" d="M11.3333 38.6667C11.2778 38.7222 11.2222 39.7778 11.6667 39.3333C11.7222 39.2778 11.7778 38.2222 11.3333 38.6667z"/>
<path style="fill:#d4c4b7; stroke:none;" d="M12 45L11 62C12.0811 60.542 12.4361 59.752 13 58C14.915 59.2767 14.085 59.2767 16 58C15.6005 63.0625 15.3994 68.5048 13 73C13.7913 74.761 13.9617 74.5454 13 76L16 79L12 78C16.8363 84.7983 26.145 81.0285 32.9992 82.0502C39.3841 83.0019 43.3182 86.9561 50 85L49 82C57.2458 75.3311 48.0538 65.4829 48 58C46.269 59.006 44.947 59.5465 43 60C43.5471 61.875 44.11 63.2553 45 65C36.03 58.9332 22.9763 62.7921 15.3179 54.6211C12.7512 51.8826 13.3536 48.2173 12 45z"/>
<path style="fill:#eeddc3; stroke:none;" d="M44.3333 48.6667C44.2778 48.7222 44.2222 49.7778 44.6667 49.3333C44.7222 49.2778 44.7778 48.2222 44.3333 48.6667z"/>
<path style="fill:#bdb8b4; stroke:none;" d="M11 55C7.44188 62.6066 4.93181 68.8073 8 77C9.05528 74.0895 8.30889 71.0696 8.88272 68C9.70321 63.6109 12.0737 59.4903 11 55z"/>
<path style="fill:#dec8b1; stroke:none;" d="M17 56C21.3191 59.9888 25.5482 59.5067 31 60.4637C36.0749 61.3546 40.3997 62.7909 45 65C42.0669 58.6958 35.5441 56.8993 29 56C29 60.2071 20.0117 56.2378 17 56z"/>
<path style="fill:#e1cbb8; stroke:none;" d="M46.3333 56.6667C46.2778 56.7222 46.2222 57.7778 46.6667 57.3333C46.7222 57.2778 46.7778 56.2222 46.3333 56.6667z"/>
<path style="fill:#dccfc7; stroke:none;" d="M13 58C9.2021 65.8078 7.84459 71.2694 9 80C11.4691 78.8761 13.2955 78.826 16 79C15.0198 77.2167 15.0924 77.4057 13 77C14.2373 75.0511 14.2373 74.9489 13 73C15.8988 69.1745 15.7958 62.7561 16 58L13 58z"/>
<path style="fill:#b5b2a9; stroke:none;" d="M47 61L49 66C49.7101 63.4693 49.1314 62.4845 47 61z"/>
<path style="fill:#d2cecb; stroke:none;" d="M7.33333 62.6667C7.27778 62.7222 7.22222 63.7778 7.66667 63.3333C7.72222 63.2778 7.77778 62.2222 7.33333 62.6667z"/>
<path style="fill:#f3efe4; stroke:none;" d="M20 69L26 69C24.2848 64.4087 28.4857 64.8356 32 65C26.8805 61.9333 20.5431 62.1902 20 69z"/>
<path style="fill:#fbf8f3; stroke:none;" d="M24 68L34 67C30.4193 64.4494 25.6716 63.0129 24 68z"/>
<path style="fill:#f0e4d8; stroke:none;" d="M32 64C32.7679 65.3142 32.6858 65.2321 34 66C31.5819 66.7224 29.5283 66.9481 27 67C30.0914 68.3093 33.6719 68.3817 37 69C35.741 66.5022 34.4395 65.3677 32 64z"/>
<path style="fill:#f0e0d3; stroke:none;" d="M40 71C40.4825 73.364 40.636 73.5175 43 74C43 72.2032 42.9857 72.4785 42 71L40 71z"/>
<path style="fill:#bebbb3; stroke:none;" d="M52 71C51.9003 75.8023 50.7392 79.5782 49 84C53.3513 81.3379 53.8915 75.5093 52 71z"/>
<path style="fill:#b5b2ae; stroke:none;" d="M10 78C11.7584 84.0368 19.8819 83 25 83L10 78z"/>
<path style="fill:#d6d6d2; stroke:none;" d="M18 83C20.0521 83.8742 21.7472 83.9528 24 84C21.9479 83.1257 20.2528 83.0472 18 83z"/>
<path style="fill:#dfd8d2; stroke:none;" d="M37 83C38.2484 83.6848 38.5484 83.7488 40 84C38.7516 83.3152 38.4516 83.2512 37 83z"/>
</svg>
