<?xml version="1.0" standalone="yes"?>
<svg xmlns="http://www.w3.org/2000/svg" width="50" height="80">
<path style="fill:#fdfdfd; stroke:none;" d="M0 0L0 10C1.25488 8.2495 1.61368 7.14265 2 5C4.83592 5.8105 6.03167 6.78415 8 9L10 9C10.9857 7.52149 11 7.79681 11 6C15.6416 7.60336 18.4808 9.76823 21 14C22.6906 10.8888 23.4852 7.49863 24 4C29.4704 5.68336 32.1312 11.5282 32.8148 17C33.8484 25.2728 33.5238 32.8993 36.2052 41C37.6404 45.3356 39.1901 49.9713 41.348 54C43.2497 57.5505 45.9654 60.8994 46.5772 65C47.0786 68.3608 45.5547 71.7237 45 75C40.0801 75.0413 35.7895 76.8106 31 77.1929C27.0493 77.5083 24.3059 75.5427 20.7145 74.4946C18.2228 73.7674 15.5736 74.3612 13.0934 73.6821C8.6553 72.4669 6.7483 67.0717 5.93904 63C4.73885 56.9613 6.27128 49.3206 6.03627 43C5.91206 39.6595 6.64028 36.3072 4 34C4.30465 31.2847 4.15907 28.7277 4 26C-0.533431 32.9994 0 39.9542 0 48L0 80L50 80L50 0L0 0z"/>
<path style="fill:#d7b991; stroke:none;" d="M24 4C23.2507 8.036 23.0027 11.8993 23 16C24.8976 13.357 25.7258 10.3925 28 8L27 4L24 4z"/>
<path style="fill:#efd9c3; stroke:none;" d="M27.3333 4.66666C27.2778 4.72224 27.2222 5.77778 27.6667 5.33334C27.7222 5.27779 27.7778 4.22221 27.3333 4.66666z"/>
<path style="fill:#fffbeb; stroke:none;" d="M2 5C-0.378734 13.991 0 22.7375 0 32C2.22092 30.3253 2.56181 28.7434 3 26C3.90006 28.7705 4.20265 31.0943 4 34C7.21946 38.2496 6.37937 45.7878 6 51C8.89417 48.471 8.12653 43.654 7.96065 40C7.679 33.7959 5.13991 28.0722 4.14506 22C3.26226 16.6117 4.07843 9.95314 2 5z"/>
<path style="fill:#dccbb1; stroke:none;" d="M3 8L6 6C3.8603 4.88224 3.47324 5.74921 3 8z"/>
<path style="fill:#d3b185; stroke:none;" d="M4 6L3 11C4.51251 9.34727 5.18079 8.10604 6 6L4 6z"/>
<path style="fill:#f1d99b; stroke:none;" d="M6 6C-0.585299 21.9186 16.5946 33.0747 13 48C19.4818 50.7351 26.269 49.3975 33 51C33.4535 48.7921 33.6463 48.4492 32 47C32.9535 42.0439 31.2068 37.8777 30.439 33C29.3946 26.3648 28.5015 17.5207 30 11C27.1937 12.7653 26.7036 14.7993 26 18C29.8562 18 26 31.3945 26 35L25 33C22.2456 38.2438 24.2437 46.099 19 49C18.9233 45.4185 18.979 42.2678 16 40C20.3923 34.8601 16.8059 29.2632 14 24L11 25C9.07124 19.0704 9.94841 10.5983 6 6z"/>
<path style="fill:#ecddc2; stroke:none;" d="M11 8L14 7C12.2218 6.04455 11.9786 6.23376 11 8z"/>
<path style="fill:#f6dcc4; stroke:none;" d="M28.3333 6.66666C28.2778 6.72224 28.2222 7.77778 28.6667 7.33334C28.7222 7.27779 28.7778 6.22223 28.3333 6.66666z"/>
<path style="fill:#d5bf8f; stroke:none;" d="M12 7L12 9L14 9L14 7L12 7z"/>
<path style="fill:#f9daa3; stroke:none;" d="M13 10C17.9048 12.9415 15.0821 18.5186 21 21C20.6246 17.4757 19.0098 2.67894 13 10z"/>
<path style="fill:#fff7e1; stroke:none;" d="M29 7L32 22C34.1069 16.9677 32.3166 11.11 29 7z"/>
<path style="fill:#cab37d; stroke:none;" d="M10 8C9.35357 10.4578 9.35356 11.5422 10 14L12 8L10 8z"/>
<path style="fill:#fce3ab; stroke:none;" d="M26 8C23.6085 16.5945 25 26.1045 25 35C26.473 31.9811 30.0847 18.6808 26 18C26.9377 14.664 27.7175 11.4579 28 8L26 8z"/>
<path style="fill:#c0a783; stroke:none;" d="M28 8L28 11C28.6961 9.44631 28.6961 9.5537 28 8z"/>
<path style="fill:#edd192; stroke:none;" d="M10 10C11.6485 14.0273 13.3563 17.6454 14 22C17.2814 22.0903 18.5076 23.1215 20 26L23 26C22.9995 21.6046 23.0635 17.9657 21 14C20.1118 16.4599 20.5335 18.4149 21 21C15.214 17.3501 18.1693 9.33654 10 10z"/>
<path style="fill:#ffecc6; stroke:none;" d="M22 10L21 16C23.0932 14.1757 23.0395 12.5292 22 10z"/>
<path style="fill:#aa8f6e; stroke:none;" d="M3 11L3 15C3.71021 13.2405 3.71021 12.7595 3 11z"/>
<path style="fill:#e4bf8d; stroke:none;" d="M11 12C10.2736 14.1792 10.5605 13.7803 9 13C9.75508 16.9181 11.8054 20.2171 13 24L16 23C16.578 25.6975 17.2614 25.7893 20 26C18.907 22.6257 17.5078 21.8715 14 22C13.6813 18.3498 12.9581 15.1164 11 12z"/>
<path style="fill:#dbbf8f; stroke:none;" d="M29 12C29.0474 17.7247 29.9527 23.3786 31 29C34.1905 24.303 32.3645 16.2748 29 12z"/>
<path style="fill:#d0ae82; stroke:none;" d="M4 13C3.38463 16.1506 3.62527 18.8269 4 22C5.25612 19.0059 5.25612 15.9941 4 13z"/>
<path style="fill:#fce7ad; stroke:none;" d="M8 13C8.21328 17.6674 8.78894 22.433 13 25C12.5103 20.4863 10.5701 16.7076 8 13z"/>
<path style="fill:#dcb37f; stroke:none;" d="M23 16L23 26C19.2054 25.3144 17.368 24.6439 14 23L16 30C17.1954 29.4023 16.9774 29.5339 18 28C19.7505 29.2549 20.8574 29.6137 23 30L23 34C24.9516 29.349 24.9516 20.651 23 16z"/>
<path style="fill:#e7cd90; stroke:none;" d="M24 16L24 33C25.8826 28.5135 25.8826 20.4865 24 16z"/>
<path style="fill:#e5ba87; stroke:none;" d="M4 22C4.35379 24.5968 4.35648 26.6108 7 27C7.00475 34.1675 8.99525 40.8325 9 48C21.1164 45.9779 8.77157 26.4974 4 22z"/>
<path style="fill:#e3cb8c; stroke:none;" d="M30 26C30.0196 33.0861 32.688 40.0115 32 47L36 48C35.0595 43.4386 34.2323 39.6556 35 35C32.5642 35 33.385 34.2139 34 32L30 26z"/>
<path style="fill:#c1a783; stroke:none;" d="M6 27L6 32C6.82989 29.9695 6.8299 29.0305 6 27z"/>
<path style="fill:#c2aa7b; stroke:none;" d="M32 27L32 32C32.8299 29.9695 32.8299 29.0305 32 27z"/>
<path style="fill:#ca9971; stroke:none;" d="M17 28L18 34C19.3545 31.3128 19.3572 29.9044 17 28z"/>
<path style="fill:#ecdcb6; stroke:none;" d="M33 29L33 32C33.6961 30.4463 33.6961 30.5537 33 29z"/>
<path style="fill:#be8a62; stroke:none;" d="M19 30L19 35L23 35L23 30L19 30z"/>
<path style="fill:#bc9d7d; stroke:none;" d="M33 33L33 36C33.6961 34.4463 33.6961 34.5537 33 33z"/>
<path style="fill:#e7c78e; stroke:none;" d="M23 34C20.2698 35.355 18.2949 37.0269 16 39C18.0159 42.2914 18.8213 45.1483 19 49C23.5564 47.4875 24.4799 38.2073 23 34z"/>
<path style="fill:#cdad7f; stroke:none;" d="M34 37C34.1805 41.1278 35.0208 44.3729 37 48C38.3413 44.1231 36.1921 40.2633 34 37z"/>
<path style="fill:#dbbb9c; stroke:none;" d="M8 38L8 42C8.71021 40.2405 8.71021 39.7595 8 38z"/>
<path style="fill:#dbccab; stroke:none;" d="M35.3333 38.6667C35.2778 38.7222 35.2222 39.7778 35.6667 39.3333C35.7222 39.2778 35.7778 38.2222 35.3333 38.6667z"/>
<path style="fill:#f5d8c0; stroke:none;" d="M8 42L8 46C8.71021 44.2405 8.71021 43.7595 8 42z"/>
<path style="fill:#c9b79f; stroke:none;" d="M8 46C8.65441 49.0539 10.0066 48.9358 13 49L8 46z"/>
<path style="fill:#d5bb95; stroke:none;" d="M36 46L33 51L39 51L39 46C37.8046 46.5977 38.0226 46.4661 37 48C37 46.1468 37.2997 46.6498 36 46z"/>
<path style="fill:#d8cbbb; stroke:none;" d="M5 62L7 62C7.16029 54.5143 9.24807 51.0916 17 51L16 53L21 53C16.359 58.1948 17.1528 64.4423 17 71L11 71C10.2562 68.3202 9.47142 67.2809 7 66C9.10665 76.8493 19.5684 73.2178 28 75L29 69C27.3441 67.3136 26.7493 66.2537 26 64C28.0558 64.4875 29.1441 64.9519 31 66C33.6819 65.0376 34.7957 65.2184 37 67C30.8064 67.4939 30.0746 72.6171 29 78C31.7745 77.5897 34.327 76.8511 37 76C35.0567 75.3782 34.051 75.5642 32 76C32.83 74.2656 33.0258 73.8461 33 72L37 72L37 68L38 72C41.961 70.6864 42.0533 67.775 43 64C41.085 62.7233 41.915 62.7233 40 64C40.9557 52.6024 28.4953 51.5049 19.9606 49.8704C16.7108 49.248 12.5685 47.8054 9.41898 49.5285C5.66064 51.5848 5.30684 58.2433 5 62z"/>
<path style="fill:#fae7c4; stroke:none;" d="M24 50C26.5275 51.092 29.3018 51.3485 32 52C29.896 49.5911 27.0941 50.0103 24 50z"/>
<path style="fill:#c2b7b4; stroke:none;" d="M39 50C39.3972 52.3013 39.957 53.9045 41 56C41.4441 53.4171 40.6306 52.043 39 50z"/>
<path style="fill:#ede4db; stroke:none;" d="M6 66C8.6815 67.2211 9.7789 68.3185 11 71L15 71C13.0877 65.6558 14.2432 60.3174 12 55L15 55L14 51C5.78782 51.638 7.19211 59.5787 6 66z"/>
<path style="fill:#dcd5c1; stroke:none;" d="M14 51L15 55L12 55C13.6837 60.3224 11.6728 68.2046 17 71C17.358 64.8578 16.4404 58.7185 21 54L16 52L17 51L14 51z"/>
<path style="fill:#fff9e0; stroke:none;" d="M24 51C26.3316 51.9845 28.4567 51.9813 31 52C28.6684 51.0155 26.5433 51.0187 24 51z"/>
<path style="fill:#e2ceae; stroke:none;" d="M32 51L32 53C34.9447 53.1913 37.2614 53.9495 40 55C38.4162 51.0601 35.9856 51.0475 32 51z"/>
<path style="fill:#e1dad0; stroke:none;" d="M36 53C37.7012 56.7984 40.1584 59.6998 40 64L43 64C41.8143 67.6043 41.4483 70.1007 38 72L38 68C37.317 69.506 37.1741 70.3148 37 72L33 72C33.0621 73.7387 32.5223 74.375 32 76C36.1566 75.4701 41.3944 75.7874 44.5664 72.5702C51.2388 65.8027 42.4034 55.7369 36 53z"/>
<path style="fill:#c8c1b9; stroke:none;" d="M42 56L44 61C44.5661 58.4913 43.8476 57.7802 42 56z"/>
<path style="fill:#f4ede5; stroke:none;" d="M21 58L21 62L33 62C30.5308 58.1751 26.0375 60.8823 22 61L22 59L28 59C25.6684 58.0155 23.5433 58.0187 21 58z"/>
<path style="fill:#fffdf7; stroke:none;" d="M22 59L22 61L29 61L29 59L22 59z"/>
<path style="fill:#eadfce; stroke:none;" d="M33 60C29.5181 62.6379 25.2392 62 21 62C23.5062 63.2102 34.7855 64.7365 33 60z"/>
<path style="fill:#c1bdbc; stroke:none;" d="M45.3333 61.6667C45.2778 61.7222 45.2222 62.7778 45.6667 62.3333C45.7222 62.2778 45.7778 61.2222 45.3333 61.6667z"/>
<path style="fill:#b3aea9; stroke:none;" d="M6.33333 62.6667C6.27778 62.7222 6.22222 63.7778 6.66667 63.3333C6.72222 63.2778 6.77778 62.2222 6.33333 62.6667z"/>
<path style="fill:#cdc1ae; stroke:none;" d="M26 64C26.5257 66.5431 26.8778 67.535 29 69L28 75L22 73C23.3657 76.8839 26.1836 76.9074 30 77C30.2057 71.2735 33.9986 65.2765 26 64z"/>
<path style="fill:#f0e7d6; stroke:none;" d="M32 64C32.6544 67.0539 34.0066 66.9358 37 67C35.5362 65.0324 34.3936 64.648 32 64z"/>
<path style="fill:#f1ece8; stroke:none;" d="M44 73L42 74C43.482 74.7912 44.7964 74.8698 44 73z"/>
</svg>
