<?xml version="1.0" standalone="yes"?>
<svg xmlns="http://www.w3.org/2000/svg" width="35" height="59">
<path style="fill:#fefefe; stroke:none;" d="M0 0L0 59L35 59L35 0L0 0z"/>
<path style="fill:#f0e2d5; stroke:none;" d="M10 3C11.2484 3.6848 11.5484 3.74879 13 4C11.7516 3.3152 11.4516 3.25121 10 3z"/>
<path style="fill:#efd191; stroke:none;" d="M9 4C8.43819 5.80057 8.17587 7.12184 8 9C10.6635 9 10.5373 10.4879 11 13C8.13729 13.4275 8.12947 16.2154 8.01852 19C7.78019 24.9814 8 31.0136 8 37C13.2605 36.982 17.0095 34.968 22 34L21 36C30.1732 35.2913 26.3155 29.3267 23.027 24C21.0996 20.8779 20.8063 17.2215 19.081 14.0147C16.7413 9.66565 12.9225 6.8173 9 4z"/>
<path style="fill:#dec39e; stroke:none;" d="M10 4C12.1475 7.5046 15.8296 10.3693 19 13C18.8058 8.04318 14.7714 4.69812 10 4z"/>
<path style="fill:#dfc496; stroke:none;" d="M9 8C3.88712 17.4343 6 30.5786 6 41C9.07508 40.3727 10.4267 39.7187 12 37L8 37C8 29.2387 6.21848 18.3025 10 12L11 13C10.6137 10.8573 10.2549 9.7505 9 8z"/>
<path style="fill:#c8b596; stroke:none;" d="M19 12C19.9329 16.8378 22.2549 20.8132 26 24C24.6524 19.3223 22.7215 15.1901 19 12z"/>
<path style="fill:#eddec4; stroke:none;" d="M6.33333 14.6667C6.27778 14.7222 6.22223 15.7778 6.66667 15.3333C6.72222 15.2778 6.77778 14.2222 6.33333 14.6667z"/>
<path style="fill:#ddbc94; stroke:none;" d="M21 18C21.2524 21.5036 22.3122 23.9346 24 27C25.6816 23.4737 23.4094 20.7332 21 18z"/>
<path style="fill:#e3c181; stroke:none;" d="M14 21L14 34L17 34C16.9053 29.4382 16.4079 24.9423 14 21z"/>
<path style="fill:#ecd7bc; stroke:none;" d="M5 24L5 44C7.08664 39.0273 7.08665 28.9727 5 24z"/>
<path style="fill:#ceb78d; stroke:none;" d="M26 24C25.3661 28.0673 27.2297 31.7877 27 36C31.0617 32.1177 28.9782 28.0227 26 24z"/>
<path style="fill:#e8cfb5; stroke:none;" d="M27.3333 25.6667C27.2778 25.7222 27.2222 26.7778 27.6667 26.3333C27.7222 26.2778 27.7778 25.2222 27.3333 25.6667z"/>
<path style="fill:#ccbbac; stroke:none;" d="M30 32L28 35L31 36C30.8259 34.3148 30.683 33.506 30 32z"/>
<path style="fill:#e8d5a9; stroke:none;" d="M12 37L12 39C15.44 38.7 18.6431 37.7675 22 37L22 34C18.3747 34.3992 15.4837 36.1455 12 37z"/>
<path style="fill:#dcccbd; stroke:none;" d="M5 51C5.6848 49.7516 5.74879 49.4516 6 48C8.77604 51.9717 11.1083 53.6708 16 54C14.494 53.317 13.6852 53.1741 12 53C17.391 51.5219 19.9424 54.5317 24.9985 55.1921C27.2798 55.4901 29.7832 54.4473 32 54C33.949 47.698 34.3007 41.2802 32 35C26.0322 35.5826 20.7877 36.9744 15 38.5255C12.0726 39.31 8.15931 39.7606 6.3179 42.4992C4.71455 44.8838 5.0229 48.27 5 51z"/>
<path style="fill:#f9eee5; stroke:none;" d="M20 41L20 46L25 46C24.4235 42.5256 23.4744 41.5765 20 41z"/>
<path style="fill:#c7c2bd; stroke:none;" d="M33 42L33 46C33.7102 44.2405 33.7102 43.7595 33 42z"/>
<path style="fill:#cfc1b9; stroke:none;" d="M6 48C7.20055 55.5529 14.5894 60.4047 19 52L12 52C13.506 52.683 14.3148 52.8259 16 53C11.2563 53.7703 9.13682 51.2474 6 48z"/>
<path style="fill:#e4ddd7; stroke:none;" d="M27 56C29.0924 55.5943 29.0198 55.7833 30 54C28.42 54.6836 28.2228 54.8048 27 56z"/>
</svg>
