<?xml version="1.0" standalone="yes"?>
<svg xmlns="http://www.w3.org/2000/svg" width="36" height="83">
<path style="fill:#fefefe; stroke:none;" d="M0 0L0 83L36 83L36 0L0 0z"/>
<path style="fill:#eae2e0; stroke:none;" d="M21 3C23.6127 4.09772 26.1645 3.99278 29 4C26.3873 2.90228 23.8355 3.00722 21 3z"/>
<path style="fill:#d5cdca; stroke:none;" d="M10 32C11.0521 28.5796 10.0182 24.616 10.0008 21C9.97284 15.2088 10.6947 10.5544 12 5C19.4272 5 25.877 3.78307 31 10C33.5277 2.19148 14.7567 2.41921 10.3179 4.60339C7.62573 5.92811 8.01812 9.48398 8.00077 12C7.95435 18.7328 8.03043 25.5182 10 32z"/>
<path style="fill:#eee5de; stroke:none;" d="M12 5C11.0188 7.7445 10.1947 10.0723 10 13C12.2958 11.4421 14.4168 10.0193 17 9L17 19C16.1655 16.858 15.7388 15.4304 14 14L14 22C15.1954 21.4023 14.9774 21.5339 16 20C16.7679 21.3142 16.6858 21.2321 18 22L18 15C18.7224 17.4181 18.9481 19.4717 19 22L21 22L20 8C21.2512 11.2681 22.2179 14.5875 23 18C24.8735 13.9913 27.5442 10.1415 29 6C23.563 4.39291 17.6418 5 12 5z"/>
<path style="fill:#e1d3d0; stroke:none;" d="M29 7C26.0472 10.7285 24.1586 13.1356 24 18C23.1194 15.9786 22.5036 14.1459 22 12C20.6726 15.1633 21.0004 18.5856 21 22L19 22L19 15C18.0155 17.3316 18.0187 19.4567 18 22C15.6838 20.6103 15.6255 18.8723 15 22C14.3193 18.4143 14.2592 14.6638 14 11C6.75385 13.548 10.6624 27.7936 10 34L15 36C17.9143 34.0871 21.5507 35.7607 24.6705 33.4776C31.2082 28.6934 34.31 13.1627 29 7z"/>
<path style="fill:#f9f4f0; stroke:none;" d="M20 8L20 16C21.1614 13.2302 21.1614 10.7699 20 8z"/>
<path style="fill:#f8ebec; stroke:none;" d="M14 9L16 19C17.3274 15.8367 16.9996 12.4144 17 9L14 9z"/>
<path style="fill:#c6b997; stroke:none;" d="M26 31C24.295 33.356 22.819 35.2088 22 38C26.0196 37.302 27.5057 34.8883 26 31z"/>
<path style="fill:#fffeea; stroke:none;" d="M27 31C26.5845 36.0873 25.053 40.9608 24.2747 46C22.3094 58.7245 20.8289 70.4704 15 82C20.7837 79.6857 21.3798 75.6522 22.6505 70C24.4375 62.0509 25.0084 53.9359 26.6296 46.0147C27.7795 40.3966 29.9425 36.5347 27 31z"/>
<path style="fill:#ccbba2; stroke:none;" d="M11 34L12 48C13.8377 43.6611 15.5662 36.6617 11 34z"/>
<path style="fill:#dfc997; stroke:none;" d="M15 34L14 38C16.409 38.2717 18.5813 38.2007 21 38L21 35L15 34z"/>
<path style="fill:#f0d69a; stroke:none;" d="M21 36C18.6918 37.8791 16.9635 38.1767 14 38L15 56C17.3699 51.575 18.3319 45.9617 19 41L23 42C22.5321 39.7983 22.0628 37.969 21 36z"/>
<path style="fill:#f2e6ca; stroke:none;" d="M11 38L11 42C11.7102 40.2405 11.7102 39.7595 11 38z"/>
<path style="fill:#e3d2a6; stroke:none;" d="M22 38C22.3334 46.6298 19.3722 55.331 19 64L17 59C15.337 62.4605 15.0787 66.1849 15 70C15.683 68.4939 15.8259 67.6852 16 66C16.6438 68.1059 16.9059 69.7951 17 72C18.2997 71.3502 18 71.8532 18 70C18.9857 71.4785 19 71.2032 19 73C24.2443 63.1533 23.8868 48.8966 26 38L22 38z"/>
<path style="fill:#d9ca9e; stroke:none;" d="M13 40L13 64C16.8844 58.3141 16.6235 45.7434 13 40z"/>
<path style="fill:#f5dfa5; stroke:none;" d="M19 41C17.3982 48.7604 15.0221 56.0078 15 64C15.7789 62.231 15.9124 60.9641 16 59C17.0481 60.8559 17.5125 61.9442 18 64C20.7833 58.2084 22.3518 47.2423 21 41L19 41z"/>
<path style="fill:#eee1c7; stroke:none;" d="M12 51L12 56C12.8299 53.9695 12.8299 53.0305 12 51z"/>
<path style="fill:#cdc09e; stroke:none;" d="M14 62L15 80C18.968 77.6819 18.9609 74.3182 19 70C17.7003 70.6498 18 70.1468 18 72C17.3562 69.8941 17.0941 68.2049 17 66C16.317 67.506 16.1741 68.3148 16 70L14 62z"/>
</svg>
