<?xml version="1.0" standalone="yes"?>
<svg xmlns="http://www.w3.org/2000/svg" width="33" height="87">
<path style="fill:#fefdfb; stroke:none;" d="M0 0L0 87C6.88665 87 13.716 88.6473 14 80C20.148 78.9357 20.2882 72.2886 20.9537 67C22.2301 56.8567 25.3806 45.9007 28 36C29.5944 37.2965 30.0182 37.5354 32 38C30.3602 42.8441 30.0817 46.9788 31 52C34.0625 47.5173 33 41.2458 33 36L33 0L0 0z"/>
<path style="fill:#f5f1e8; stroke:none;" d="M10 3C14.974 5.0872 21.6381 4 27 4C22.026 1.9128 15.3619 3 10 3z"/>
<path style="fill:#dfd7c7; stroke:none;" d="M7 32C7.6848 30.7516 7.74879 30.4516 8 29L10 33C13.7562 31.4776 15.3557 30.0571 16 26L12 27C13.7435 23.8321 15.435 23.2688 19 23L19 32L26 32C28.0731 25.6267 33.611 12.879 30.3966 6.3179C29.3634 4.20886 27.0663 4.11062 24.9954 4.01929C20.4986 3.82097 8.87907 2.045 6.02778 6.3179C1.92823 12.4614 6.14885 25.3002 7 32z"/>
<path style="fill:#f5eee8; stroke:none;" d="M4 6L4 18C5.51243 14.3957 5.51243 9.6043 4 6z"/>
<path style="fill:#ecdccd; stroke:none;" d="M11 18C14.4471 17.8954 17.5209 17.8551 18 14C20.442 14.1095 22.6228 14.428 25 15C26.0919 12.1328 26.3049 10.0525 26 7C22.7339 6.99783 15.3749 5.12366 12.7423 7.06713C9.98618 9.10174 11.0003 15.0348 11 18z"/>
<path style="fill:#ece0d2; stroke:none;" d="M9 8L9 16C8.01433 14.5215 8 14.7968 8 13C6.90229 15.6127 7.00722 18.1645 7 21C10.9176 18.1746 10.7733 12.226 9 8z"/>
<path style="fill:#fbefdf; stroke:none;" d="M11 18C13.6127 19.0977 16.1645 18.9928 19 19C16.3873 17.9023 13.8355 18.0072 11 18z"/>
<path style="fill:#f8ede2; stroke:none;" d="M8 21C10.8897 22.2129 13.8741 21.9983 17 22C14.1103 20.7871 11.1259 21.0017 8 21z"/>
<path style="fill:#fceee6; stroke:none;" d="M12 27L16 26L15 31L19 32L19 23C15.3084 23.1204 13.2226 23.3133 12 27z"/>
<path style="fill:#c9bda4; stroke:none;" d="M8 29L8 35C9.51621 32.6528 9.3872 31.44 8 29z"/>
<path style="fill:#e2ca9f; stroke:none;" d="M14 31L10 33C11.506 33.683 12.3148 33.8259 14 34L13 38L20 37C19.3501 35.7003 19.8532 36 18 36C24.1867 36.7781 16.7613 45.0671 22 48C22.2643 44.8369 23.7019 37.4344 21.169 35.0231C19.2311 33.1785 16.1255 33.0298 14 31z"/>
<path style="fill:#f3ddb7; stroke:none;" d="M15 31C15.8352 34.8974 19.4691 33.4691 22 36C22.7789 34.231 22.9124 32.9641 23 31C20.0661 31.6401 17.934 31.6401 15 31z"/>
<path style="fill:#ffffea; stroke:none;" d="M7 32C5.52485 43.6724 6.49293 55.2748 5.96065 67C5.69355 72.8838 3.33762 77.3708 6 83C10.558 72.8468 8 57.9348 8 47C8 42.1913 8.87516 36.4687 7 32z"/>
<path style="fill:#c8b998; stroke:none;" d="M23 32L22 43C23.6419 39.6111 24.4519 35.7278 25 32L23 32z"/>
<path style="fill:#c3b18b; stroke:none;" d="M9 34L9 57C11.2838 51.5574 11.2838 39.4426 9 34z"/>
<path style="fill:#d9c290; stroke:none;" d="M10 34C10 48.174 8 61.8933 8 76C13.7957 62.5694 9.58747 47.8907 14 34L10 34z"/>
<path style="fill:#faecd1; stroke:none;" d="M8 35L8 52C9.8826 47.5135 9.8826 39.4865 8 35z"/>
<path style="fill:#edd39c; stroke:none;" d="M18 35C18.6498 36.2997 18.1468 36 20 36C17.3331 37.0032 14.8248 37.6208 12 38C11.4959 44.3881 11 50.5687 11 57C13.4556 53.2651 13.7929 46.5313 14 42L17 44L17 42C18.1863 43.0356 18.6036 43.3386 20 44C20.7243 40.9605 20.9738 38.1217 21 35L18 35z"/>
<path style="fill:#ffffff; stroke:none;" d="M28 36C24.8499 44.6433 22.3216 55.8624 21.0648 65C20.2833 70.6819 20.2956 78.0176 14 80C13.8905 82.442 13.572 84.6228 13 87L33 87L33 50C31.7003 50.6498 32 50.1468 32 52C29.9513 47.0478 30.6877 43.0744 32 38L28 36z"/>
<path style="fill:#f8e1a8; stroke:none;" d="M14 42C13.0489 52.9079 11.9988 62.9743 12 74C16.8435 67.9402 16.0592 61.2529 16 54C16.6438 56.1059 16.9059 57.7951 17 60C19.6464 53.9203 19.9884 48.2749 18 42C16.8046 42.5977 17.0226 42.4661 16 44C15.2321 42.6859 15.3141 42.7679 14 42z"/>
<path style="fill:#c5bb98; stroke:none;" d="M20 48L20 53C20.8299 50.9695 20.8299 50.0305 20 48z"/>
<path style="fill:#e2d8b4; stroke:none;" d="M8 52L8 61C9.25612 58.0059 9.25612 54.9941 8 52z"/>
<path style="fill:#ede0b5; stroke:none;" d="M19 52C18.1898 54.729 18.0209 57.1505 18 60C17.3562 57.8941 17.0941 56.2049 17 54C15.5265 57.5181 16.4338 61.2841 15.6481 65C14.6196 69.8649 12.2618 73.9536 12 79C16.078 73.9153 17.1244 67.1575 18.7346 61C19.6047 57.6727 20.7369 55.0672 19 52z"/>
<path style="fill:#fdf5e2; stroke:none;" d="M20 54L18 65C20.547 61.8919 22.0595 57.6359 20 54z"/>
<path style="fill:#ecd8a5; stroke:none;" d="M11 64C9.34452 69.2224 8.43097 74.5391 8 80C13.6244 78.1333 12.9754 68.7077 11 64z"/>
<path style="fill:#dfd7b3; stroke:none;" d="M7 77L7 84C9.56153 83.2644 9.98271 82.4814 11 80C9.25431 79.1764 8.35078 78.4018 7 77z"/>
</svg>
