<?xml version="1.0" standalone="yes"?>
<svg xmlns="http://www.w3.org/2000/svg" width="36" height="89">
<path style="fill:#fffdfc; stroke:none;" d="M0 0L0 89L10 89C11.2854 72.7119 11.5548 55.0596 8 39C12.3226 38.0737 10.5005 34.3393 9.33333 31C6.98317 24.2763 4.09174 17.7917 8.63889 11.0833C11.716 6.54371 18.6782 3.65214 24 5.5C26.8217 6.47974 28.055 8.0495 31 8C34.7813 18.3751 30.9703 27.7006 28.804 38C26.6425 48.2768 26.6356 58.754 24.1011 69C22.3383 76.1262 18.1776 82.1185 16 89L36 89L36 0L0 0z"/>
<path style="fill:#ece3d4; stroke:none;" d="M12 15C10.4238 20.2851 10.8111 25.5483 11 31L9 26C5.54884 37.6721 18.0135 42.1714 26.6636 37.0802C34.2835 32.5955 34.3089 14.8758 31 8C25.4796 6.82379 21.0084 3.46342 15.044 5.89352C11.2775 7.4281 8.62537 12.0003 12 15z"/>
<path style="fill:#f0e9df; stroke:none;" d="M9 9C6.25746 15.1964 5.7691 20.3698 7 27C9.66348 27 9.53725 28.4879 10 31C11.9726 26.2283 10.769 20.1554 12 15C10.4314 12.7757 10.5157 11.7064 11 9L9 9z"/>
<path style="fill:#fff8ed; stroke:none;" d="M18 24L18 32L20 32L20 24L18 24z"/>
<path style="fill:#d7c7a3; stroke:none;" d="M28 35C24.7928 41.5948 24.4384 43.9938 26 51C27.9181 46.7274 29.7308 39.4343 28 35z"/>
<path style="fill:#d2c69d; stroke:none;" d="M11 37L12 48C13.7663 44.0559 13.8109 40.3733 11 37z"/>
<path style="fill:#eedda9; stroke:none;" d="M17 40L17 42L22 42L22 64C31.0773 60.8108 24.2957 49.9912 24.5594 43.9151C24.6534 41.751 25.9965 39.8343 27 38C23.4144 38.1059 20.4467 39.2318 17 40z"/>
<path style="fill:#ffffee; stroke:none;" d="M8 39C9.40952 50.9703 10.7505 62.9121 11 75C15.5402 64.1802 9.90169 50.1759 11 39L8 39z"/>
<path style="fill:#e0cea6; stroke:none;" d="M13 39L13 48C14.416 45.9585 14.7451 44.489 15 42C17.4273 43.3051 19.2363 43.144 22 43C19.1253 41.4784 16.0859 40.0307 13 39z"/>
<path style="fill:#fff6da; stroke:none;" d="M10 42L10 46L12 46L12 42L10 42z"/>
<path style="fill:#f8e6b8; stroke:none;" d="M15 42C14.3873 45.1587 12.5504 47.9153 12.1327 51.0895C11.5211 55.7374 12.8718 60.3673 12.9853 65C13.1823 73.0388 12.4723 80.9868 12 89C18.9616 87.78 19.5741 75.841 20 70L22 75C22.8325 71.5343 21.9664 67.6149 22.0039 64C22.0458 59.9487 23.4521 55.9973 23.375 52C23.3169 48.992 22.2623 46.0114 22 43C19.2638 43 17.1612 43.6209 15 42z"/>
<path style="fill:#ccc3a4; stroke:none;" d="M12 59L12 67C13.1614 64.2301 13.1614 61.7699 12 59z"/>
<path style="fill:#e7d7b6; stroke:none;" d="M22 64L22 73C24.2455 70.2576 24.7114 67.5072 25 64L22 64z"/>
<path style="fill:#e7dbbb; stroke:none;" d="M12 67C11.9389 74.3827 10.3161 81.6384 10 89L12 89C12.8024 82.3612 14.6422 73.2968 12 67z"/>
<path style="fill:#e4d9bd; stroke:none;" d="M20 70C19.3319 75.803 16.8006 80.4513 16 86C20.7512 81.9162 23.0653 75.8083 20 70z"/>
</svg>
