<?xml version="1.0" standalone="yes"?>
<svg xmlns="http://www.w3.org/2000/svg" width="37" height="88">
<path style="fill:#fefefe; stroke:none;" d="M0 0L0 88L37 88L37 0L0 0z"/>
<path style="fill:#d7d0c6; stroke:none;" d="M21 3C22.5061 3.68304 23.3148 3.82589 25 4C23.494 3.31696 22.6852 3.17411 21 3z"/>
<path style="fill:#cfc1b9; stroke:none;" d="M5 9C5.00074 15.6767 4.85565 23.1071 10 28C9.85715 23.1807 6.11077 18.1725 9 14L8 11C11.465 10.2355 14.7255 8.09248 18.1343 7.5324C20.6372 7.12115 23.5099 8.87877 24 6C28.4853 8.3535 31.9649 11.9732 33 17C36.6696 12.0707 30.9728 6.30724 25.9568 4.65278C18.4081 2.16295 11.7025 6.32345 5 9z"/>
<path style="fill:#ddccba; stroke:none;" d="M24 6C24 6.33347 24.6061 7.78114 23.6667 7.83334C21.7327 7.94078 19.9697 6.78788 18 7C14.9232 7.33135 11.1047 10.0196 8 11C8 12.7968 8.01432 12.5215 9 14C5.17429 17.3956 9.8653 24.3982 10 29C13.2996 27.481 16.5374 26.9373 20 26C22.1651 28.2911 25.9039 27.5554 29 28C29.7264 25.8208 29.4395 26.2197 31 27C32.542 18.3118 35.1722 9.55689 24 6z"/>
<path style="fill:#edeae1; stroke:none;" d="M30 7C31.0012 8.92383 31.0775 9.09849 33 10C32.1007 7.87637 32.1236 7.89929 30 7z"/>
<path style="fill:#e1dad4; stroke:none;" d="M4 12L4 16C4.71021 14.2405 4.71021 13.7595 4 12z"/>
<path style="fill:#f0e4d9; stroke:none;" d="M19 21L20 26C23.8137 25.3387 24.5703 23.7406 25 20L19 21z"/>
<path style="fill:#dfd3ab; stroke:none;" d="M9 28C9 41.9127 12.9991 55.046 13 69C13.0003 74.2817 12.0644 80.9655 18 83C17.0985 80.1456 14.9608 77.9831 14.3434 74.9815C13.0359 68.6248 14.1462 61.4658 13.9853 55C13.8638 50.1156 11.847 45.7742 11.4151 41C11.0792 37.2874 12.3886 33.757 12 30C16.9153 30 23.8661 31.4356 27 27C24.2573 27.1409 22.3558 27.3707 20 26L9 28z"/>
<path style="fill:#a29572; stroke:none;" d="M29 26L29 30C29.7102 28.2405 29.7102 27.7595 29 26z"/>
<path style="fill:#fffcdf; stroke:none;" d="M8 27C5.95316 38.0252 9.63146 47.1712 11 58C13.5886 51.8171 10.2001 44.316 9.30015 38C8.7692 34.2737 9.46606 30.4938 8 27z"/>
<path style="fill:#c6b785; stroke:none;" d="M25 29C26.6631 30.5034 27.896 31.1986 30 32L29 28L25 29z"/>
<path style="fill:#ffffeb; stroke:none;" d="M30 29C29.9985 42.6916 26.7757 57.1549 22.1196 70C20.3463 74.8921 19.8839 80.3587 15 83C23.0752 86.269 22.1364 77.0602 23.8495 72.0895C25.9008 66.1378 28.41 60.2257 29.7014 54C30.4498 50.3921 29.6977 46.6322 30.375 43C31.3057 38.0089 33.3598 33.4348 30 29z"/>
<path style="fill:#dac38f; stroke:none;" d="M12 30C16.4704 31.8759 22.1589 31.1012 27 32C25.0643 41.9757 24 50.803 24 61C26.5837 55.7536 26.0458 48.5485 29 44C27.917 39.388 28.9567 36.4396 30 32C24.1497 29.521 18.2471 30 12 30z"/>
<path style="fill:#ffeab1; stroke:none;" d="M12 31C12.1319 34.3786 10.9703 37.6281 11.2238 41C11.5026 44.7095 12.989 48.4373 14 52C15.2033 49.159 15.0537 46.0572 15.9745 43.0895C17.0625 39.583 19.1412 36.5832 20 33L12 31z"/>
<path style="fill:#f3de9b; stroke:none;" d="M14 31C16.5288 32.7122 18.0496 32.7328 21 32C21.6617 40.3847 22 48.5656 22 57C24.5562 53.626 23.6996 50.0473 24.1844 46C24.7494 41.2836 26.3886 36.7346 27 32C22.6622 30.9673 18.4385 31 14 31z"/>
<path style="fill:#fcf1bb; stroke:none;" d="M20 32C19.0395 36.2356 16.389 39.7872 15.4776 44.0394C13.0717 55.2649 12.9088 68.736 15 80C20.2488 78.1544 18.5411 72.6055 19.7045 68.0394C22.2551 58.0287 25.1451 41.6775 20 32z"/>
<path style="fill:#c2b38c; stroke:none;" d="M28 35L28 43C29.1614 40.2301 29.1614 37.7698 28 35z"/>
<path style="fill:#f3e8ca; stroke:none;" d="M29 35L29 40C29.8299 37.9695 29.8299 37.0305 29 35z"/>
<path style="fill:#e7d6a2; stroke:none;" d="M12 39L12 43C12.7102 41.2405 12.7102 40.7595 12 39z"/>
<path style="fill:#bea97d; stroke:none;" d="M27 44L27 48C27.7102 46.2405 27.7102 45.7595 27 44z"/>
<path style="fill:#e8d9bb; stroke:none;" d="M28.3333 44.6667C28.2778 44.7222 28.2222 45.7778 28.6667 45.3333C28.7222 45.2778 28.7778 44.2222 28.3333 44.6667z"/>
<path style="fill:#f2e9ca; stroke:none;" d="M12 54L12 73C14.0196 68.1871 14.0196 58.8129 12 54z"/>
<path style="fill:#e2d5ab; stroke:none;" d="M23 56C21.7947 59.2971 20.882 63.1176 25 64C24.635 61.1781 24.2322 58.5607 23 56z"/>
<path style="fill:#e6daba; stroke:none;" d="M25.3333 56.6667C25.2778 56.7222 25.2222 57.7778 25.6667 57.3333C25.7222 57.2778 25.7778 56.2222 25.3333 56.6667z"/>
<path style="fill:#ede7b5; stroke:none;" d="M20 64L19 72C21.1761 69.4507 23.0548 67.2286 24 64L20 64z"/>
<path style="fill:#f9f3d1; stroke:none;" d="M21 68C19.3593 71.882 18.7775 75.8735 18 80C21.0202 77.4143 21.8515 71.8072 23 68L21 68z"/>
</svg>
