<?xml version="1.0" standalone="yes"?>
<svg xmlns="http://www.w3.org/2000/svg" width="37" height="88">
<path style="fill:#fefefe; stroke:none;" d="M0 0L0 19C2.55695 18.4886 1.60685 18.3219 3 16L4 17C5.40204 3.40888 27.4413 -3.50508 33.3372 11.0008C35.8907 17.2834 30.5014 22.8969 30.0548 29C29.7171 33.6149 30.5506 38.4086 29.7762 42.9853C29.1688 46.5755 26.6861 49.368 26.1883 53.0147C25.0174 61.5916 25.4236 70.429 21.9761 78.6752C20.5916 81.9867 17.7351 84.81 16 88L37 88L37 0L0 0z"/>
<path style="fill:#eee7e1; stroke:none;" d="M16 3C19.1633 4.32736 22.5856 3.99963 26 4C22.8367 2.67264 19.4144 3.00037 16 3z"/>
<path style="fill:#dac9b5; stroke:none;" d="M7 17C11.8811 11.9469 17.0765 9.7391 24 11C22.7734 16.2662 26.8453 16.6536 30 20L27 20C27.4371 23.7321 28.0631 27.3591 29 31C31.2907 26.0376 35.0523 18.5948 34.2932 13C32.3474 -1.34239 1.00386 0.603416 7 17z"/>
<path style="fill:#e6d9c9; stroke:none;" d="M12 7C16.4272 8.85842 23.4851 9.6444 27 6C21.7099 4.4369 17.1668 5.36214 12 7z"/>
<path style="fill:#e0d7cd; stroke:none;" d="M10 13C11.769 13.7789 13.0359 13.9124 15 14C13.9435 16.2425 13.8185 16.5766 14 19C16.8661 15.8748 18.8155 15.1361 23 16L24 11C18.4611 9.68558 15.1414 10.99 10 13z"/>
<path style="fill:#fef1e1; stroke:none;" d="M16 11L16 13L22 13L22 11L16 11z"/>
<path style="fill:#d0cebe; stroke:none;" d="M4 12L4 18C4.9511 15.7147 4.95111 14.2853 4 12z"/>
<path style="fill:#b9b4a0; stroke:none;" d="M5 12L5 21C6.25612 18.0059 6.25612 14.9941 5 12z"/>
<path style="fill:#d7c6ab; stroke:none;" d="M6 16C5.50479 24.9198 8.79636 34.2488 19.9606 31.6829C22.8715 31.0139 25.1214 28.8403 28 28C27.873 25.2625 27.5848 22.6774 27 20L30 20L30 18C26.6654 16.7509 23.5579 16.1548 20 16L24 22C18.7297 21.7115 14.1383 19.9692 15 14C13.7686 14 8.86752 13.2564 8 14C6.01954 15.6975 9.25643 16.8141 6 16z"/>
<path style="fill:#fff6ef; stroke:none;" d="M15 19L19 19L18 16L22 16C18.501 14.5833 16.1932 15.404 15 19z"/>
<path style="fill:#fefeff; stroke:none;" d="M2 16C-1.07087 24.5978 0 33.9478 0 43L0 88L15 88C13.7693 85.4785 11.1098 83.8059 10.3056 80.9167C8.45653 74.2739 11.452 67.4698 10.5833 61C9.54583 53.2724 7.05601 45.6399 6.08333 38C5.10273 30.2978 9.44582 21.7072 2 16z"/>
<path style="fill:#f3eddb; stroke:none;" d="M18 16C18 17.7968 18.0143 17.5215 19 19L15 19C17.7632 21.59 20.2684 21.9106 24 22C22.5617 19.0137 20.9708 17.4533 18 16z"/>
<path style="fill:#e1c08f; stroke:none;" d="M14 32C18.3388 33.8206 23.4073 33.3261 28 35L28 28C22.8804 28.838 19.5099 31.9349 14 32z"/>
<path style="fill:#fffeee; stroke:none;" d="M7 29C4.84223 36.3 7.63799 41.8748 8.69907 49C9.35603 53.4115 10.3182 58.5602 10.2608 63C10.1413 72.2495 7.33896 81.8372 16 88C21.9176 80.0341 24.3349 72.8342 26 63C20.7304 68.929 20.3391 78.8465 13 83C13 69.8322 12.2261 57.9549 10.0802 45C9.22575 39.8412 9.06179 33.7796 7 29z"/>
<path style="fill:#d2bc8a; stroke:none;" d="M8 29L9 41C10.2129 38.1103 9.99827 35.1259 10 32L11 36C12.3136 34.3877 13.1874 32.9151 14 31L8 29z"/>
<path style="fill:#c5b383; stroke:none;" d="M28 29L27 46C29.6954 41.5004 30.0243 33.8241 28 29z"/>
<path style="fill:#e8dbb8; stroke:none;" d="M29 31L29 35C29.7102 33.2405 29.7102 32.7595 29 31z"/>
<path style="fill:#e7cf91; stroke:none;" d="M10 32C10.0042 37.4414 10.2849 43.495 15 47C14.5352 41.8328 12.4821 36.535 10 32z"/>
<path style="fill:#f7e3a4; stroke:none;" d="M12 33C12.1129 36.8898 13.859 40.1574 14.1875 43.9105C14.3717 46.0153 13.3701 47.98 13.4174 50.0895C13.6438 60.1787 13.4346 69.8786 13 80C21.0777 78.8127 20.6172 67.5225 22.5255 61C24.345 54.7806 26.2293 48.3806 27.3804 42C27.8106 39.6151 28.3237 36.6441 26.3958 34.7423C23.271 31.6598 16.008 33 12 33z"/>
<path style="fill:#fff4df; stroke:none;" d="M29 35L28 48C30.4996 44.3412 30.7073 39.0688 29 35z"/>
<path style="fill:#fee1b3; stroke:none;" d="M20 40C18.7676 43.7071 19.1168 47.1381 19 51C22.5994 48.2599 22.6166 43.4581 20 40z"/>
<path style="fill:#decba0; stroke:none;" d="M9 41C10.603 47.507 12.0269 54.381 13 61C16.3418 55.8892 13.0719 46.7531 12 41L9 41z"/>
<path style="fill:#ecdaac; stroke:none;" d="M26 46C24.0536 54.0598 20.4231 62.7573 20 71C24.7925 64.917 26.2741 53.5468 28 46L26 46z"/>
<path style="fill:#fff3d9; stroke:none;" d="M25 56C23.6779 60.6588 22.2222 65.1378 22 70C24.6195 65.9075 26.9597 60.725 25 56z"/>
<path style="fill:#cebf98; stroke:none;" d="M13 61L13 75C14.6668 71.0279 14.6668 64.9721 13 61z"/>
<path style="fill:#f8f3d2; stroke:none;" d="M20 71L19 76C20.475 74.0648 20.791 73.3073 20 71z"/>
<path style="fill:#eae0c7; stroke:none;" d="M13 83C15.209 82.3161 15.7034 81.9201 17 80C14.2614 80.2107 13.578 80.3025 13 83z"/>
</svg>
