<?xml version="1.0" standalone="yes"?>
<svg xmlns="http://www.w3.org/2000/svg" width="53" height="89">
<path style="fill:#fffdfa; stroke:none;" d="M0 0L0 89L14 89C14.6836 87.42 14.8048 87.2228 16 86C16.1708 79.5504 19.2788 74.717 20.4259 68.7145C20.9538 65.9527 19.9535 62.8249 20 60C15.0635 65.6704 13.9012 78.6044 13 86C5.29678 84.7462 5.1734 75.4967 5.01466 69C4.80643 60.4778 8.56963 53.3025 8.95988 45C9.55101 32.4236 0.00284958 16.1516 13.0432 6.65278C18.4143 2.74036 22.2677 5.58179 28 5.58179C35.7583 5.58179 46.2948 0.749763 49.1227 12.0046C49.5326 13.6362 49.6292 15.3309 49.446 17C48.4248 26.304 43.4768 34.3634 43.0394 44C42.5596 54.5678 41.3568 64.6896 39 75C44.2877 73.8669 42.1643 66.1465 47 64C45.0013 53.3615 49.6061 43.2694 48 33C53.1222 31.5523 52.9905 27.7565 53 23L53 0L0 0z"/>
<path style="fill:#d1c5b3; stroke:none;" d="M16 4L16 6C20.0349 6.03653 22.9823 6.17242 26 9L29 8C28.4549 9.63515 28.6352 9.45495 27 10C31.209 11.6374 34.9405 8.20136 39 7C37.7624 5.34987 36.3335 5.66662 39 5C35.0833 3.37246 32.0049 5.25 28 5.25C24.021 5.25 20.0696 4.01168 16 4z"/>
<path style="fill:#e3dad1; stroke:none;" d="M37 5C39.4599 5.88821 41.4149 5.46655 44 5C41.4768 4.00976 39.6417 4.38308 37 5z"/>
<path style="fill:#e2d0bc; stroke:none;" d="M9 48C10.2129 45.1103 9.99827 42.1259 10 39C21.6411 42.0118 32.3201 39.3077 44 40C42.866 30.3895 49.1717 22.5149 47.8665 13.0934C47.443 10.0363 45.2118 7.75188 44 5C39.3076 5.80796 34.3922 10.0092 29.9344 10.1875C27.6676 10.2782 26.4116 8.16235 24.625 7.15972C21.4624 5.38486 15.2393 4.78306 12.1049 6.78163C6.65813 10.2547 6.74261 16.3944 6.87886 22C7.09281 30.8026 8.99903 39.1959 9 48z"/>
<path style="fill:#cbc3b6; stroke:none;" d="M44 6C45.1602 8.38274 47.16 10.4492 47.7215 13.0934C49.0985 19.5791 44.8641 25.7118 44 32C48.9144 26.0823 54.2106 9.0974 44 6z"/>
<path style="fill:#bfb09b; stroke:none;" d="M27 8L27 10L29 10L29 8L27 8z"/>
<path style="fill:#f4e8da; stroke:none;" d="M32 12L30 18C31.58 18.6836 31.7772 18.8048 33 20C34.0977 17.3873 33.9928 14.8355 34 12L32 12z"/>
<path style="fill:#fff9e9; stroke:none;" d="M33 20L33 18C30.216 17.6123 26.6883 14.4171 24.1597 14.7917C21.2938 15.2162 20.7467 19.1845 23.3225 20.3966C26.1036 21.7053 30.1108 20.3651 33 20z"/>
<path style="fill:#b3ab9e; stroke:none;" d="M6 18L6 22C6.71021 20.2405 6.71021 19.7595 6 18z"/>
<path style="fill:#f0e4d8; stroke:none;" d="M29 20C30.5061 20.683 31.3148 20.8259 33 21C31.494 20.317 30.6852 20.1741 29 20z"/>
<path style="fill:#c4bbae; stroke:none;" d="M6 22L6 27C6.82989 24.9695 6.8299 24.0305 6 22z"/>
<path style="fill:#ffffff; stroke:none;" d="M51 31C49.7772 32.1952 49.58 32.3164 48 33C48.5412 43.614 44.3844 53.3542 47 64C42.7582 64.909 42.0821 71.0932 42 75C35.3996 76.4232 33.1776 84.1112 27 87C26.0946 76.2772 27.364 65.7926 26 55L23 55L23 60C21.3648 59.4549 21.5451 59.6352 21 58C19.0311 61.794 20.8334 64.8409 20.0278 68.7145C18.7897 74.6672 15.1926 79.6057 16 86C14.2167 86.9802 14.4057 86.9076 14 89L53 89L53 31L51 31z"/>
<path style="fill:#cac0b4; stroke:none;" d="M43 32L43 37C43.8299 34.9695 43.8299 34.0305 43 32z"/>
<path style="fill:#e4cea3; stroke:none;" d="M10 39C11.5679 45.6803 8.05211 49.7642 6.17901 56C4.35144 62.0842 4.20119 69.9144 6 76C9.22685 70.6482 10.6423 62.1772 10 56C9.12575 58.0521 9.04721 59.7472 9 62C6.13476 54.8886 12.7715 49.1874 13 42C15.6858 42.5008 18.2699 42.8826 21 43C20.2999 48.2536 17.1258 51.5101 18 57L17 55C15.1978 59.0146 15.0362 63.6278 15 68C16.3228 66.6772 15.26 66.2201 16 64C16.7654 61.7039 18.9059 60.1882 20 58C21.7206 54.5588 23.442 51.1975 26 48L27 49L26 42C27.0226 43.5339 26.8046 43.4023 28 44C30.4523 42.0678 32.9387 41.6039 36 41C32.7514 39.8348 29.4361 40.9832 26 40.9105C20.5582 40.7954 15.3278 40.0326 10 39z"/>
<path style="fill:#e7cf93; stroke:none;" d="M31 42C32.9704 45.6927 35.5402 47.725 39 50L40 46L41 50C42.9322 46.3656 43.1272 42.9235 42 39C38.2549 39.7751 34.6411 40.8357 31 42z"/>
<path style="fill:#c7b585; stroke:none;" d="M10 40L10 48C11.1614 45.2302 11.1614 42.7699 10 40z"/>
<path style="fill:#e6cf95; stroke:none;" d="M13 42C12.4702 49.3053 7.1608 54.2889 8 62C8.87425 59.9479 8.95279 58.2528 9 56C9.98568 57.4785 10 57.2032 10 59C11.9984 55.9146 13.5058 52.6528 14 49L16 50L17 43L13 42z"/>
<path style="fill:#f2d8a0; stroke:none;" d="M26 42C26.0299 44.3702 25.6529 47.7589 26.8611 49.8889C28.5547 52.8745 30.4782 51.4226 31 49C32.6721 49.3382 32.3102 49.5372 33 48C38.0124 52.5934 36.9974 60.0939 42 64C40.8783 57.9545 41.7176 52.076 41 46C40.0886 47.3766 39.5962 48.4399 39 50C36.8662 47.7872 33.4233 43.9289 30.8333 42.5C28.7134 41.3304 28.0221 43.49 26 42z"/>
<path style="fill:#fcdea7; stroke:none;" d="M14 49L17 57C18.5454 52.633 20.6871 47.6572 21 43C20.4607 43 17.2971 42.6435 17 43C15.5082 44.7901 16.2343 47.9428 15 50L14 49z"/>
<path style="fill:#e7dcbd; stroke:none;" d="M42 46L42 53C43.0595 50.4657 43.0595 48.5343 42 46z"/>
<path style="fill:#fffaeb; stroke:none;" d="M25 48C22.6589 51.8155 18.2322 56.5735 23 60L23 55L26 55C26.3976 60.0384 27.2066 64.9117 26.9599 70C26.7401 74.5329 25.359 78.4197 26 83C29.6079 74.6361 30.4202 55.6076 25 48z"/>
<path style="fill:#fcebb6; stroke:none;" d="M33 48C33 52.9163 34.4134 60.9777 32 65L31 64C32.5376 69.8118 32.7527 74.0443 32 80C34.8178 78.1767 34.8951 76.2845 35 73L36 75C36.6218 73.0567 36.4358 72.051 36 70C41.3137 65.3567 38.3665 51.4908 33 48z"/>
<path style="fill:#f4ddac; stroke:none;" d="M31 49C29.2146 54.1351 30.0165 58.6353 29.9992 64C29.9783 70.5064 29.486 76.4867 30 83C34.2724 77.5706 33.2226 70.0984 31 64C35.0891 63.3185 33.2099 51.5782 31 49z"/>
<path style="fill:#e1d2ac; stroke:none;" d="M27 51C28.2206 58.2088 29 64.6228 29 72C31.3752 66.3397 31.0916 55.7049 27 51z"/>
<path style="fill:#fbe9b8; stroke:none;" d="M9 83C13.9028 81.2758 12.2881 77.3256 12.6127 73.0039C13.1512 65.8325 15.9951 59.4648 16 52C11.4371 53.7903 10.9873 57.5474 9.87346 62C7.99203 69.5209 6.34331 75.5618 9 83z"/>
<path style="fill:#cdc39f; stroke:none;" d="M41 53L41 62C42.2561 59.0059 42.2561 55.9941 41 53z"/>
<path style="fill:#fff7d8; stroke:none;" d="M28 56L28 72C29.8123 67.6811 29.8123 60.3189 28 56z"/>
<path style="fill:#f1e1c2; stroke:none;" d="M19 58C18.0143 59.4785 18 59.2032 18 61C19.2892 59.5574 19.4009 59.7663 19 58z"/>
<path style="fill:#eee1c1; stroke:none;" d="M38 59C37.9996 62.9899 38.4742 66.7341 36 70L37 75L36 73C34.4039 76.4221 32.5772 80.2689 32 84C34.8099 81.6587 36.5095 78.6269 39 76C38.3784 70.2938 41.6889 63.8752 38 59z"/>
<path style="fill:#efe0b5; stroke:none;" d="M17 61C16.428 63.3772 16.1095 65.558 16 68C14.5215 67.0143 14.7968 67 13 67C12.6209 71.8441 12.6209 76.1559 13 81L15 81C15.1292 74.7421 18.8102 66.9032 17 61z"/>
<path style="fill:#cec1a7; stroke:none;" d="M40 64L40 68C40.7102 66.2405 40.7102 65.7595 40 64z"/>
<path style="fill:#dbcfb7; stroke:none;" d="M39 67L38 75C40.0442 72.2385 40.8886 69.9802 39 67z"/>
<path style="fill:#e4d5b8; stroke:none;" d="M28 72C27.972 75.3776 26.7143 79.5865 27.4066 82.8472C28.2928 87.0208 31.2057 84.39 32 82C28.3922 82 29.7916 74.4634 28 72z"/>
<path style="fill:#c8bda9; stroke:none;" d="M6 76L6 80C6.71021 78.2405 6.71021 77.7595 6 76z"/>
<path style="fill:#ece5c8; stroke:none;" d="M27 76L27 80C27.7102 78.2405 27.7102 77.7595 27 76z"/>
<path style="fill:#dad1c0; stroke:none;" d="M6 80C7.38435 83.7676 9.04397 84.6953 13 85L14 81L9 83L9 80L6 80z"/>
<path style="fill:#efe6dc; stroke:none;" d="M8 85C9.76904 85.7789 11.0359 85.9124 13 86C11.231 85.2211 9.96406 85.0876 8 85z"/>
<path style="fill:#ece8dc; stroke:none;" d="M27 85C27.9802 86.7833 27.9076 86.5943 30 87C28.8606 85.9846 28.3884 85.6913 27 85z"/>
</svg>
