<?xml version="1.0" standalone="yes"?>
<svg xmlns="http://www.w3.org/2000/svg" width="49" height="77">
<path style="fill:#fffefa; stroke:none;" d="M0 0L0 47C0.683041 45.4939 0.825891 44.6852 1 43L3 44C3.61079 39.167 5.7245 33.6684 5.68673 28.9105C5.62204 20.7613 2.74496 15.5757 8.72917 8.29012C15.4142 0.151329 19.9819 5.95384 28 5.09953C33.8912 4.47184 41.4708 -0.741112 44.4861 8.17439C47.6821 17.6242 41.506 25.7862 38.2816 34C35.6456 40.715 35.719 48.1881 33.1011 55C30.5961 61.518 25.7327 67.3169 24 74C14.6141 71.5455 20.9992 55.6071 21 48L17 47C16.9379 50.8159 15.1962 53.4147 14.6065 57C14.0227 60.5491 16.5167 63.0995 12 64C10.5751 67.0333 9.40432 68.6006 6 69C3.74121 70.0687 2.47777 69.6327 0 69L0 77L20 77C22.4402 76.9989 26.2006 77.6176 28.2577 75.9738C30.0241 74.5623 29.8884 72.0139 30 70C30.9857 71.4785 31 71.2032 31 73C34.9448 70.1879 36.4156 63.6899 37 59L38 61C38.771 58.2388 37.5447 55.8553 37.723 53C38.0045 48.4911 38.9515 43.402 40 39C41.5211 44.146 41 49.6605 41 55C41.683 53.4939 41.8259 52.6852 42 51C42.5618 52.8006 42.8241 54.1218 43 56C45.1415 50.9436 44.9964 44.4586 45 39C43.9023 41.6127 44.0072 44.1645 44 47L42 47C42 42.8802 41.2835 37.9615 42.564 34C43.8707 29.9576 47.4826 27.1581 48.5702 23C50.3946 16.0254 49 7.18913 49 0L0 0z"/>
<path style="fill:#e8e6dd; stroke:none;" d="M34 2C35.769 2.77894 37.0359 2.91241 39 3C37.231 2.22106 35.9641 2.08759 34 2z"/>
<path style="fill:#e9ddd1; stroke:none;" d="M10 7C12.6858 6.49917 15.2699 6.11744 18 6L17 8L24 8C22.3136 6.34406 21.2537 5.74927 19 5C20.4785 4.01432 20.2032 4 22 4C17.34 2.0453 13.1738 3.1897 10 7z"/>
<path style="fill:#dfd2c1; stroke:none;" d="M26 6C27.3121 7.4591 28.2309 8.15715 30 9L30 11C28.2461 11.3508 27.031 13.8463 25 13C22.8842 12.1184 21.1952 8.99603 20 8C19.748 7.79004 17.4886 7.29314 17 7L18 6L8 7C8.98025 8.78333 8.90759 8.59433 11 9C9.18968 11.2722 6.75914 13.5353 9 16C7.61695 18.9202 5.00863 28.3508 7.83565 30.9722C9.50981 32.5246 12.9293 31.9957 15 32C21.6543 32.0137 28.4924 32.5493 35 31C35.9328 32.7662 37.1049 33.1029 39 34C42.6395 24.8685 51.941 -0.639656 33.0015 3.38966C30.5718 3.90658 28.2886 5.06765 26 6z"/>
<path style="fill:#d7c8b4; stroke:none;" d="M19 4C20.6314 5.36585 22.0378 6.14175 24 7L20 8C22.5216 12.2283 25.6356 13.2082 30 11L30 9C26.2676 6.34691 23.6939 4.42634 19 4z"/>
<path style="fill:#e4d9d3; stroke:none;" d="M23.6667 4.33334C23.2222 4.77776 24.2778 4.72223 24.3333 4.66666C24.7778 4.2222 23.7222 4.27779 23.6667 4.33334z"/>
<path style="fill:#d1c8bf; stroke:none;" d="M6 29C8.20009 25.2547 7.25538 20.9744 9 17C8.03759 13.7503 9.36636 11.8696 11 9C2.33998 11.7771 3.83403 22.1672 6 29z"/>
<path style="fill:#e0d6cc; stroke:none;" d="M6 11C5.01432 12.4785 5 12.2032 5 14C6.28922 12.5574 6.40094 12.7663 6 11z"/>
<path style="fill:#bdb9b0; stroke:none;" d="M44 11L44 19C45.1614 16.2302 45.1614 13.7698 44 11z"/>
<path style="fill:#fdf3e7; stroke:none;" d="M21 18C22.242 21.5652 23.3169 23.8189 27 25L31 19L25 21C23.7741 18.9653 23.2974 18.6735 21 18z"/>
<path style="fill:#bfb5ac; stroke:none;" d="M43 19L42 25C43.654 22.8233 43.9942 21.575 43 19z"/>
<path style="fill:#ddd6ce; stroke:none;" d="M44.3333 19.6667C44.2778 19.7222 44.2222 20.7778 44.6667 20.3333C44.7222 20.2778 44.7778 19.2222 44.3333 19.6667z"/>
<path style="fill:#ffffff; stroke:none;" d="M48 24C46.1939 26.9038 43.6257 29.7139 42.564 33C41.1938 37.241 42 42.5864 42 47L44 47L44 39C45.621 44.5357 44.0158 50.2855 44 56C43.4382 54.1994 43.1759 52.8782 43 51C42.317 52.506 42.1741 53.3148 42 55C40.4789 49.854 41 44.3395 41 39C36.7208 44.6473 37.2868 54.5083 39 61L38 59C35.6693 62.0162 35.2329 66.3262 33.8333 70C32.8105 72.685 31.3338 72.5873 31 70C29.9115 72.2515 29.4813 74.5348 29 77L49 77L49 41C49 35.6497 50.0851 28.9691 48 24z"/>
<path style="fill:#fffdec; stroke:none;" d="M6 30C3.7567 34.3102 3.37907 39.1967 3 44L1 43C0.138298 49.8184 -3.24984 65.4927 3 70C2.52011 63.9191 1.37951 58.0898 2.66898 52C4.09207 45.2791 8.80118 36.7385 6 30z"/>
<path style="fill:#ecd6ac; stroke:none;" d="M12 32L14 38C20.0817 35.423 31.0435 33.5501 35 40C36.736 37.2464 37.6052 35.2164 37 32L35 33L35 31C27.4049 32.41 19.6981 32 12 32z"/>
<path style="fill:#e3ca91; stroke:none;" d="M7 32L6 42C8.01273 40.0999 8.61132 38.7394 9 36L13 35L13 33C10.8941 32.3562 9.20488 32.0941 7 32z"/>
<path style="fill:#f3d595; stroke:none;" d="M9 36C8.34902 45.0597 3.07825 51.6865 7 61C9.89282 56.6168 9.99661 52.1128 10 47L11 49C12.9102 46.1839 14.613 43.1081 16 40C18.7468 40.6425 22.7308 41.6981 25 40C27.0037 42.6825 27.7741 44.6573 28 48C29.3274 44.8367 28.9996 41.4144 29 38C23.5298 36.2931 19.2682 35.1885 14 38C14 36.2032 13.9857 36.4785 13 35L9 36z"/>
<path style="fill:#f6db9e; stroke:none;" d="M25 36C26.543 37.2667 27.0478 37.4892 29 38L29 48C28.3562 45.8941 28.0941 44.2049 28 42L26 42L24 66C25.4251 64.97 26.3197 64.3995 28 64C30.5481 57.7472 34.4978 50.8067 34.9059 44C35.0385 41.7873 35.1806 38.5849 33.2577 37.0278C31.223 35.3802 27.4307 36.0019 25 36z"/>
<path style="fill:#d3c7a1; stroke:none;" d="M36 36C34.434 48.3807 28.6591 57.4368 25 69C28.0907 67.0729 29.2596 64.3027 30.716 61C33.7389 54.1451 39.0574 43.4962 36 36z"/>
<path style="fill:#dbcfa5; stroke:none;" d="M7 40C6.2736 42.1792 6.56053 41.7803 5 41C4.30489 45.7244 2.41921 50.2124 2.09105 55C1.74754 60.0115 2.95846 64.9821 3 70L7 69C0.360852 59.8064 5.33684 49.3541 9 40L7 40z"/>
<path style="fill:#e7d6a1; stroke:none;" d="M16 40C14.0826 42.983 12.6394 45.4849 12 49L11 47C9.29011 51.0658 8.74817 56.5812 8 61C5.66339 57.1013 5.48774 54.4454 6 50C2.21734 55.3092 3.19591 62.0628 5 68L7 68C10.1632 62.2151 12.2038 55.9827 14.9545 50C16.6417 46.3304 18.5295 43.5348 16 40z"/>
<path style="fill:#f5e5bc; stroke:none;" d="M18 40L18 44C19.2429 42.097 19.2429 41.903 18 40z"/>
<path style="fill:#ebddb0; stroke:none;" d="M20 40C27.8771 50.8969 20.2484 61.3412 20 73C25.4007 72.0814 25.8885 67.7742 27 63C25.8048 64.2228 25.6836 64.42 25 66C23.0424 58.2518 25.9784 48.1521 26 40C24.8046 40.5977 25.0226 40.4661 24 42C22.457 40.7333 21.9522 40.5108 20 40z"/>
<path style="fill:#ffffea; stroke:none;" d="M20 41C15.2643 48.2807 6.71128 61.0033 8 70C10.3233 68.0942 11.194 66.892 12 64C13.4785 64.9857 13.2032 65 15 65C15.5461 62.2633 14.8113 59.7206 15.2539 57C15.8237 53.497 16.9574 50.6386 17 47L21 48C20.9945 56.2493 18.3709 63.884 18 72L20 72C20.9151 61.5048 25.155 51.6738 22 41L20 41z"/>
<path style="fill:#dbd3af; stroke:none;" d="M23 48L23 58C24.3457 54.793 24.3457 51.207 23 48z"/>
<path style="fill:#ece0c6; stroke:none;" d="M32.3333 56.6667C32.2778 56.7222 32.2222 57.7778 32.6667 57.3333C32.7222 57.2778 32.7778 56.2222 32.3333 56.6667z"/>
<path style="fill:#f3eacd; stroke:none;" d="M2 62L2 66C2.71021 64.2405 2.71021 63.7595 2 62z"/>
<path style="fill:#e5ddcb; stroke:none;" d="M3 70C4.24835 70.6848 4.54842 70.7488 6 71C4.75165 70.3152 4.45158 70.2512 3 70z"/>
<path style="fill:#f3ecd6; stroke:none;" d="M20 73C21.506 73.683 22.3148 73.8259 24 74C22.494 73.317 21.6852 73.1741 20 73z"/>
</svg>
