<?xml version="1.0" standalone="yes"?>
<svg xmlns="http://www.w3.org/2000/svg" width="42" height="61">
<path style="fill:#fefff9; stroke:none;" d="M0 0L0 61L42 61L42 0L16 0L16 2C19.3848 1.95853 22.7175 1.64132 26 2.64506C28.6238 3.4474 31.5783 4.46144 33.8704 5.98997C42.6519 11.846 38.1169 20.314 33.8858 27.2855C29.8382 33.9547 26.1326 40.2601 21.3048 46.439C18.9359 49.471 11.4383 60.762 6.56327 57.9545C4.40555 56.7118 3.55001 52.2 2.90046 50C0.0641816 40.3937 3.95207 30.6497 3.99923 21C4.01694 17.3766 3.62563 13.4794 4.9946 10.0394C6.49695 6.26415 9.82672 3.91425 11 0L0 0z"/>
<path style="fill:#fffaec; stroke:none;" d="M11 0C10.3164 1.58 10.1952 1.77722 9 3C13.9786 4.53603 22.2506 5.2431 27 3C23.084 0.768921 15.613 0.306431 11 0z"/>
<path style="fill:#cebda9; stroke:none;" d="M4 25C7.9344 19.1497 4.01805 8.16484 14 8L17 4C3.0132 1.27958 4 15.23 4 25z"/>
<path style="fill:#c5aa8c; stroke:none;" d="M15 3C15.5977 4.19543 15.4661 3.97739 17 5C15.6858 5.76789 15.7679 5.68585 15 7C20.6904 9.41528 23.8124 9.78199 30 9L30 4L15 3z"/>
<path style="fill:#cabea6; stroke:none;" d="M29 5L30 9C31.731 7.99403 33.053 7.45352 35 7C32.8459 5.01346 31.9048 4.68702 29 5z"/>
<path style="fill:#e0d0b7; stroke:none;" d="M19 10L19 12C23.4385 12 27.6622 11.9673 32 13C32 11.2032 31.9857 11.4785 31 10C32.5125 11.6527 33.1808 12.894 34 15C31.3142 15.5008 28.7301 15.8826 26 16L26 20C20.1848 19.1001 13.4344 12.3168 11 7C6.5559 9.88538 2.81781 19.6552 7.58873 23.9907C12.0528 28.0475 22.9448 28.6297 28 26C29.3826 28.3168 30.4867 28.9626 33 30C36.0909 23.8994 37.7801 20.9575 36 14C40.8569 12.9592 37.6637 9.03228 36 6C30.1687 7.83794 25.2313 9.87138 19 10z"/>
<path style="fill:#ecdac6; stroke:none;" d="M11 7C12.6507 12.8676 19.9562 19.5431 26 20L26 16C28.7845 15.9417 31.2908 15.6479 34 15C33.352 12.6064 32.9676 11.4638 31 10L32 13C27.7394 11.7406 23.4226 12 19 12C17.6497 8.24393 14.725 7.66471 11 7z"/>
<path style="fill:#d9c8aa; stroke:none;" d="M15 7C16.543 8.26667 17.0478 8.48925 19 9C17.4569 7.73332 16.9522 7.51076 15 7z"/>
<path style="fill:#c9c2af; stroke:none;" d="M36 14L37 21C38.9527 18.7687 39.5412 16.9344 40 14L36 14z"/>
<path style="fill:#e3c38c; stroke:none;" d="M5 23C1.88921 32.8133 4.83399 42.1213 3 52C4.43357 53.3926 5.04487 54.2328 6 56C8.1208 54.9187 8.91869 54.1208 10 52L6 51C6 44.7109 5.61756 38.2884 6.05401 32.0147C6.3236 28.1395 8.59732 25.5955 5 23z"/>
<path style="fill:#e9ca9d; stroke:none;" d="M8 25C9.71777 30.8724 23.9588 30.0431 29 29L28 26C21.2606 28.5769 14.9296 26.2911 8 25z"/>
<path style="fill:#f2d390; stroke:none;" d="M6 27L6 44C6 47.3902 5.27993 50.2028 9 51C9 49.2032 8.98567 49.4785 8 48C12.0022 44.633 12.1309 34.1333 13 29L6 27z"/>
<path style="fill:#f1cc86; stroke:none;" d="M13 29C11.4242 34.9561 11.8246 43.1397 8 48L10 51L13 49C12.7011 44.6533 13.9607 40.398 14 36C16.364 35.5176 16.5175 35.364 17 33C20.0751 33.6273 21.4267 34.2813 23 37C24.7387 36.9379 25.375 37.4777 27 38C27.6117 35.3165 27.7816 32.7331 28 30L24 29C20.4333 31.7016 16.7889 31.1071 13 29z"/>
<path style="fill:#dfbd88; stroke:none;" d="M14 29L14 31L24 31L24 29L14 29z"/>
<path style="fill:#d7c19a; stroke:none;" d="M29 35C30.2614 32.9902 31.1898 31.2222 32 29C28.2146 29.6631 27.1629 31.535 29 35z"/>
<path style="fill:#f5e7cc; stroke:none;" d="M31 31C30.0143 32.4785 30 32.2032 30 34C31.2892 32.5574 31.4009 32.7663 31 31z"/>
<path style="fill:#fffcde; stroke:none;" d="M2 33L2 50C3.8826 45.5135 3.8826 37.4865 2 33z"/>
<path style="fill:#fad797; stroke:none;" d="M17 33C16.1007 35.1236 16.1236 35.1007 14 36C14 41.2558 12.5205 46.2697 11 51L15 51L15 49L17 50L17 47L19 48L21 45C19.2387 42.2144 23.7092 40.1187 26 39C24.861 36.9453 25.182 36.9507 23 37C21.8809 33.8073 20.2836 33.375 17 33z"/>
<path style="fill:#fdedcb; stroke:none;" d="M29 34C27.1517 36.618 25.9035 38.9269 25 42C27.3581 39.7052 29.3171 37.3638 29 34z"/>
<path style="fill:#ebd4a2; stroke:none;" d="M19 45C21.0378 44.8202 21.4482 44.8361 23 46L26 39C22.5577 40.2044 20.7774 41.8256 19 45z"/>
<path style="fill:#cab98a; stroke:none;" d="M3 40L3 50C4.34572 46.793 4.34572 43.207 3 40z"/>
<path style="fill:#d1bd93; stroke:none;" d="M21.3333 44.6667C21.2778 44.7222 21.2222 45.7778 21.6667 45.3333C21.7222 45.2778 21.7778 44.2222 21.3333 44.6667z"/>
<path style="fill:#d6c485; stroke:none;" d="M19 46C18.2736 48.1792 18.5605 47.7803 17 47L18 51C19.5034 49.3369 20.1986 48.104 21 46L19 46z"/>
<path style="fill:#c0a97f; stroke:none;" d="M9 49L10 54L6 56L5 52C3.96834 55.7686 6.92896 59.5344 11.0394 57.6273C14.7387 55.9109 16.9441 52.7514 18 49C15.7264 50.8423 13.5321 52.5288 11 54C11.9857 52.5215 12 52.7968 12 51L9 49z"/>
<path style="fill:#e1c48a; stroke:none;" d="M15 49C14.2736 51.1792 14.5605 50.7803 13 50L11 54C13.6571 52.9334 16.2454 52.0107 15 49z"/>
<path style="fill:#cabc9c; stroke:none;" d="M5 57L5 59L7 59L7 57L5 57z"/>
<path style="fill:#ece2c7; stroke:none;" d="M7.66667 59.3333C7.22222 59.7778 8.27778 59.7222 8.33333 59.6667C8.77778 59.2222 7.72222 59.2778 7.66667 59.3333z"/>
</svg>
