<svg width="869" height="642" viewBox="0 0 869 642" fill="none" xmlns="http://www.w3.org/2000/svg">
<g clip-path="url(#clip0)">
<path d="M198.728 594.728C198.728 594.728 153.609 560.621 145.086 517.237C141.63 499.016 132.358 482.406 118.663 469.899C112.111 464.016 105.035 458.744 97.5225 454.15" stroke="#535461" stroke-width="2" stroke-miterlimit="10"/>
<path d="M92.0016 426.819C95.9556 432.167 97.744 454.831 97.744 454.831C97.744 454.831 76.6037 446.505 72.6415 441.165C70.7388 438.598 69.934 435.381 70.404 432.22C70.874 429.06 72.5803 426.215 75.1476 424.313C77.7149 422.41 80.9329 421.606 84.0936 422.076C87.2543 422.546 90.0989 424.252 92.0016 426.819V426.819Z" fill="#79CD8B"/>
<path d="M129.918 444.602C130.328 451.238 119.524 471.236 119.524 471.236C119.524 471.236 106.292 452.748 105.874 446.112C105.714 442.948 106.808 439.849 108.918 437.486C111.028 435.124 113.985 433.687 117.146 433.489C120.308 433.29 123.42 434.345 125.81 436.426C128.199 438.506 129.672 441.444 129.91 444.602H129.918Z" fill="#79CD8B"/>
<path d="M166.669 495.721C163.683 501.66 144.249 513.472 144.249 513.472C144.249 513.472 142.174 490.833 145.16 484.894C146.63 482.101 149.137 479.997 152.143 479.034C155.149 478.072 158.413 478.327 161.232 479.746C164.051 481.166 166.2 483.635 167.217 486.622C168.234 489.61 168.037 492.877 166.669 495.721V495.721Z" fill="#79CD8B"/>
<path d="M185.775 540.639C183.831 546.996 166.677 561.917 166.677 561.917C166.677 561.917 160.796 539.959 162.74 533.593C163.674 530.539 165.784 527.981 168.605 526.482C171.425 524.983 174.726 524.665 177.781 525.6C180.835 526.534 183.394 528.644 184.893 531.464C186.392 534.284 186.71 537.585 185.775 540.639V540.639Z" fill="#79CD8B"/>
<path d="M99.9671 487.314C106.53 488.2 127.276 478.832 127.276 478.832C127.276 478.832 109.77 464.33 103.175 463.444C100.009 463.019 96.8041 463.868 94.2649 465.806C91.7257 467.743 90.0602 470.61 89.6349 473.775C89.2095 476.941 90.0591 480.145 91.9968 482.684C93.9345 485.223 96.8015 486.888 99.9671 487.314V487.314Z" fill="#79CD8B"/>
<path d="M122.978 539.573C129.54 538.449 146.497 523.315 146.497 523.315C146.497 523.315 125.447 514.719 118.892 515.843C117.323 516.1 115.82 516.665 114.471 517.506C113.121 518.347 111.952 519.447 111.029 520.743C110.107 522.038 109.451 523.504 109.098 525.054C108.745 526.605 108.703 528.209 108.974 529.776C109.245 531.343 109.823 532.841 110.676 534.183C111.529 535.525 112.639 536.685 113.942 537.596C115.246 538.507 116.717 539.15 118.27 539.49C119.824 539.829 121.43 539.857 122.994 539.573H122.978Z" fill="#79CD8B"/>
<path d="M152.305 587.305C158.958 587.305 178.236 575.255 178.236 575.255C178.236 575.255 158.95 563.221 152.297 563.221C149.103 563.221 146.04 564.49 143.781 566.748C141.523 569.007 140.254 572.069 140.254 575.263C140.254 578.457 141.523 581.519 143.781 583.778C146.04 586.036 149.103 587.305 152.297 587.305H152.305Z" fill="#79CD8B"/>
<path d="M637.038 299.735C637.038 299.735 664.848 250.477 706.767 236.287C724.37 230.441 739.602 219.047 750.18 203.812C755.141 196.529 759.422 188.805 762.969 180.738" stroke="#535461" stroke-width="2" stroke-miterlimit="10"/>
<path d="M789.286 171.715C784.511 176.341 762.288 181.132 762.288 181.132C762.288 181.132 767.743 159.067 772.518 154.432C774.822 152.275 777.882 151.108 781.038 151.184C784.194 151.26 787.194 152.572 789.392 154.838C791.59 157.104 792.811 160.142 792.791 163.298C792.771 166.455 791.512 169.477 789.286 171.715Z" fill="#79CD8B"/>
<path d="M776.718 211.605C770.155 212.901 748.933 204.846 748.933 204.846C748.933 204.846 765.504 189.261 772.026 187.989C773.591 187.642 775.211 187.611 776.789 187.898C778.367 188.184 779.872 188.784 781.216 189.66C782.559 190.537 783.714 191.673 784.612 193.001C785.51 194.33 786.134 195.825 786.446 197.398C786.759 198.971 786.754 200.591 786.432 202.162C786.11 203.734 785.477 205.225 784.571 206.548C783.665 207.871 782.503 209 781.155 209.869C779.806 210.737 778.298 211.327 776.718 211.605V211.605Z" fill="#79CD8B"/>
<path d="M730.976 254.817C724.692 252.643 710.41 234.958 710.41 234.958C710.41 234.958 732.559 229.889 738.859 232.062C740.373 232.564 741.772 233.362 742.975 234.409C744.177 235.456 745.16 236.732 745.866 238.162C746.572 239.592 746.987 241.148 747.087 242.739C747.186 244.331 746.969 245.926 746.447 247.433C745.925 248.94 745.108 250.328 744.045 251.517C742.982 252.706 741.694 253.672 740.255 254.359C738.815 255.046 737.254 255.44 735.661 255.518C734.068 255.597 732.476 255.358 730.976 254.817V254.817Z" fill="#79CD8B"/>
<path d="M688.941 279.72C682.378 278.637 665.348 263.585 665.348 263.585C665.348 263.585 686.341 254.841 692.895 255.924C696.05 256.443 698.869 258.194 700.733 260.791C702.597 263.388 703.353 266.62 702.834 269.774C702.315 272.929 700.564 275.748 697.966 277.611C695.369 279.475 692.137 280.231 688.982 279.712L688.941 279.72Z" fill="#79CD8B"/>
<path d="M730.401 187.596C730.393 194.248 742.46 213.549 742.46 213.549C742.46 213.549 754.511 194.273 754.511 187.628C754.553 186.021 754.273 184.422 753.687 182.925C753.101 181.427 752.221 180.063 751.099 178.911C749.976 177.76 748.635 176.844 747.154 176.219C745.672 175.595 744.081 175.273 742.473 175.273C740.865 175.273 739.273 175.595 737.792 176.219C736.31 176.844 734.969 177.76 733.847 178.911C732.725 180.063 731.845 181.427 731.259 182.925C730.672 184.422 730.392 186.021 730.434 187.628L730.401 187.596Z" fill="#79CD8B"/>
<path d="M681.648 217.338C683.634 223.687 700.894 238.493 700.894 238.493C700.894 238.493 706.636 216.494 704.634 210.145C703.596 207.203 701.457 204.779 698.668 203.383C695.878 201.987 692.655 201.728 689.678 202.66C686.701 203.593 684.203 205.644 682.708 208.382C681.213 211.119 680.839 214.33 681.665 217.338H681.648Z" fill="#79CD8B"/>
<path d="M638.277 252.75C639.163 259.312 653.666 276.841 653.666 276.841C653.666 276.841 663.027 256.129 662.141 249.542C661.965 247.946 661.472 246.402 660.69 244.999C659.908 243.597 658.854 242.365 657.589 241.375C656.325 240.386 654.875 239.66 653.325 239.239C651.776 238.819 650.157 238.712 648.566 238.926C646.975 239.14 645.442 239.67 644.058 240.485C642.675 241.3 641.468 242.383 640.51 243.671C639.551 244.959 638.859 246.426 638.476 247.985C638.093 249.544 638.025 251.164 638.277 252.75V252.75Z" fill="#79CD8B"/>
<path opacity="0.25" d="M789.286 171.715C784.511 176.341 762.288 181.132 762.288 181.132C762.288 181.132 767.743 159.067 772.518 154.432C774.822 152.275 777.882 151.108 781.038 151.184C784.194 151.26 787.194 152.572 789.392 154.838C791.59 157.104 792.811 160.142 792.791 163.298C792.771 166.455 791.512 169.477 789.286 171.715Z" fill="black"/>
<path opacity="0.25" d="M776.718 211.605C770.155 212.901 748.933 204.846 748.933 204.846C748.933 204.846 765.504 189.261 772.026 187.989C773.591 187.642 775.211 187.611 776.789 187.898C778.367 188.184 779.872 188.784 781.216 189.66C782.559 190.537 783.714 191.673 784.612 193.001C785.51 194.33 786.134 195.825 786.446 197.398C786.759 198.971 786.754 200.591 786.432 202.162C786.11 203.734 785.477 205.225 784.571 206.548C783.665 207.871 782.503 209 781.155 209.869C779.806 210.737 778.298 211.327 776.718 211.605V211.605Z" fill="black"/>
<path opacity="0.25" d="M730.976 254.817C724.692 252.643 710.41 234.958 710.41 234.958C710.41 234.958 732.559 229.889 738.859 232.062C740.373 232.564 741.772 233.362 742.975 234.409C744.177 235.456 745.16 236.732 745.866 238.162C746.572 239.592 746.987 241.148 747.087 242.739C747.186 244.331 746.969 245.926 746.447 247.433C745.925 248.94 745.108 250.328 744.045 251.517C742.982 252.706 741.694 253.672 740.255 254.359C738.815 255.046 737.254 255.44 735.661 255.518C734.068 255.597 732.476 255.358 730.976 254.817V254.817Z" fill="black"/>
<path opacity="0.25" d="M688.941 279.72C682.378 278.637 665.348 263.585 665.348 263.585C665.348 263.585 686.341 254.841 692.895 255.924C696.05 256.443 698.869 258.194 700.733 260.791C702.597 263.388 703.353 266.62 702.834 269.774C702.315 272.929 700.564 275.748 697.966 277.611C695.369 279.475 692.137 280.231 688.982 279.712L688.941 279.72Z" fill="black"/>
<path opacity="0.25" d="M730.401 187.596C730.393 194.248 742.46 213.549 742.46 213.549C742.46 213.549 754.511 194.273 754.511 187.628C754.553 186.021 754.273 184.422 753.687 182.925C753.101 181.427 752.221 180.063 751.099 178.911C749.976 177.76 748.635 176.844 747.154 176.219C745.672 175.595 744.081 175.273 742.473 175.273C740.865 175.273 739.273 175.595 737.792 176.219C736.31 176.844 734.969 177.76 733.847 178.911C732.725 180.063 731.845 181.427 731.259 182.925C730.672 184.422 730.392 186.021 730.434 187.628L730.401 187.596Z" fill="black"/>
<path opacity="0.25" d="M681.648 217.338C683.634 223.687 700.894 238.493 700.894 238.493C700.894 238.493 706.636 216.494 704.634 210.145C703.596 207.203 701.457 204.779 698.668 203.383C695.878 201.987 692.655 201.728 689.678 202.66C686.701 203.593 684.203 205.644 682.708 208.382C681.213 211.119 680.839 214.33 681.665 217.338H681.648Z" fill="black"/>
<path opacity="0.25" d="M638.277 252.75C639.163 259.312 653.666 276.841 653.666 276.841C653.666 276.841 663.027 256.129 662.141 249.542C661.965 247.946 661.472 246.402 660.69 244.999C659.908 243.597 658.854 242.365 657.589 241.375C656.325 240.386 654.875 239.66 653.325 239.239C651.776 238.819 650.157 238.712 648.566 238.926C646.975 239.14 645.442 239.67 644.058 240.485C642.675 241.3 641.468 242.383 640.51 243.671C639.551 244.959 638.859 246.426 638.476 247.985C638.093 249.544 638.025 251.164 638.277 252.75V252.75Z" fill="black"/>
<path d="M638.638 298.758C638.638 298.758 644.101 242.455 676.636 212.515C690.359 200.038 699.667 183.449 703.166 165.235C704.758 156.577 705.552 147.79 705.537 138.986" stroke="#535461" stroke-width="2" stroke-miterlimit="10"/>
<path d="M725.93 119.989C723.469 126.157 705.061 139.544 705.061 139.544C705.061 139.544 701.107 117.159 703.592 110.991C704.789 108.029 707.113 105.663 710.054 104.415C712.995 103.167 716.311 103.138 719.273 104.334C722.236 105.531 724.601 107.855 725.849 110.795C727.098 113.736 727.127 117.052 725.93 120.014V119.989Z" fill="#79CD8B"/>
<path d="M730.615 161.593C725.176 165.415 702.477 166.67 702.477 166.67C702.477 166.67 711.32 145.721 716.759 141.898C718.049 140.933 719.519 140.236 721.083 139.85C722.647 139.463 724.273 139.394 725.864 139.646C727.455 139.899 728.98 140.469 730.347 141.321C731.714 142.173 732.896 143.291 733.823 144.609C734.75 145.926 735.404 147.416 735.745 148.991C736.086 150.565 736.107 152.192 735.808 153.775C735.509 155.358 734.895 156.865 734.003 158.206C733.111 159.548 731.959 160.697 730.615 161.585V161.593Z" fill="#79CD8B"/>
<path d="M706.283 219.652C699.655 220.209 679.425 209.808 679.425 209.808C679.425 209.808 697.637 196.192 704.265 195.634C707.448 195.367 710.607 196.374 713.047 198.436C715.487 200.497 717.008 203.443 717.276 206.626C717.543 209.809 716.536 212.967 714.474 215.407C712.413 217.847 709.466 219.368 706.283 219.635V219.652Z" fill="#79CD8B"/>
<path d="M677.973 259.426C671.533 261.067 649.844 254.283 649.844 254.283C649.844 254.283 665.488 237.788 671.927 236.114C675.019 235.313 678.302 235.772 681.055 237.391C683.808 239.01 685.805 241.656 686.607 244.748C687.409 247.839 686.95 251.122 685.331 253.875C683.711 256.628 681.065 258.625 677.973 259.426V259.426Z" fill="#79CD8B"/>
<path d="M678.547 158.41C681.238 164.489 700.057 177.277 700.057 177.277C700.057 177.277 703.256 154.768 700.565 148.69C699.225 145.846 696.825 143.64 693.878 142.542C690.932 141.444 687.673 141.541 684.798 142.814C681.923 144.086 679.66 146.433 678.492 149.352C677.324 152.271 677.344 155.531 678.547 158.435V158.41Z" fill="#79CD8B"/>
<path d="M646.029 205.346C650.418 210.342 672.19 216.887 672.19 216.887C672.19 216.887 668.515 194.453 664.126 189.458C663.09 188.244 661.823 187.248 660.399 186.529C658.975 185.809 657.422 185.379 655.83 185.265C654.239 185.15 652.64 185.353 651.128 185.861C649.615 186.37 648.219 187.174 647.02 188.227C645.821 189.279 644.843 190.56 644.143 191.994C643.444 193.428 643.036 194.986 642.943 196.579C642.851 198.172 643.076 199.767 643.606 201.272C644.136 202.777 644.959 204.162 646.029 205.346V205.346Z" fill="#79CD8B"/>
<path d="M620.689 255.317C624.167 260.977 644.519 271.107 644.519 271.107C644.519 271.107 644.692 248.377 641.238 242.709C639.519 240.092 636.848 238.248 633.791 237.567C630.735 236.886 627.533 237.422 624.865 239.062C622.198 240.702 620.274 243.317 619.502 246.351C618.73 249.386 619.17 252.602 620.73 255.317H620.689Z" fill="#79CD8B"/>
<path d="M596.8 78.2619C598.162 73.2664 599.803 68.2464 600.951 63.1853C599.573 68.2464 597.924 73.2829 596.8 78.2619Z" fill="url(#paint0_linear)"/>
<path d="M590.697 126.379C590.582 126.182 590.5 125.985 590.41 125.805C590.41 125.723 590.328 125.657 590.295 125.575C590.116 125.659 589.932 125.733 589.745 125.797C589.384 125.936 589.015 126.067 588.638 126.174C588.26 126.28 588.104 126.338 587.817 126.403C587.579 126.485 587.335 126.549 587.087 126.592L587.153 126.74C587.456 126.674 587.752 126.617 588.055 126.535L588.137 127.552C588.482 127.552 588.802 127.503 589.113 127.503C589.261 127.495 589.409 127.495 589.556 127.503C590.196 127.503 590.754 127.503 591.197 127.503C591.025 127.134 590.844 126.748 590.697 126.379ZM757.226 391.432C753.371 386.24 745.676 330.511 745.676 330.511C745.676 330.511 730.541 290.884 734.667 275.069C738.793 259.254 723.396 218.79 723.396 218.79C723.396 218.79 713.223 214.369 712.674 207.807C712.674 207.807 671.14 194.683 669.195 184.839C667.62 176.768 641.862 170.977 632.608 169.148C629.786 157.762 626.948 147.14 624.856 141.341C624.29 139.536 623.757 137.977 623.264 136.747C619.729 127.724 608.802 126.904 600.877 127.626C600.534 126.088 599.896 124.631 598.999 123.336C598.868 122.89 598.608 122.494 598.252 122.196C598.082 122.051 597.901 121.919 597.711 121.802C597.567 121.536 597.378 121.297 597.153 121.096C596.928 120.894 596.68 120.717 596.414 120.571C596.224 120.468 596.027 120.378 595.824 120.301C595.349 120.12 594.857 119.985 594.355 119.899C593.771 119.779 593.179 119.702 592.584 119.669C594.031 119.036 595.322 118.092 596.365 116.905C597.075 116.071 597.603 115.099 597.916 114.05C598.176 113.178 598.292 112.269 598.26 111.36C598.047 111.735 597.8 112.089 597.522 112.418C597.867 108.784 595.947 105.093 594.848 101.476C593.516 96.7662 593.269 91.8162 594.126 86.9978C595.225 79.7302 597.949 72.3806 599.794 64.9817C599.799 64.9409 599.799 64.8996 599.794 64.8587C600.762 61.1843 601.361 57.4225 601.583 53.6292C601.903 45.9761 599.942 38.3394 596.792 31.3671C593.994 25.1905 589.868 19.1123 583.552 16.6023C578.859 14.7074 573.601 15.0109 568.547 14.6992C557.21 13.9938 546.398 10.0073 535.619 6.38171C524.84 2.75612 513.748 -0.541361 502.403 0.0902458C491.058 0.721853 479.384 6.19305 474.208 16.2331C472.567 19.3666 471.624 22.8527 469.663 25.7975C465.988 31.3507 459.409 34.1314 453.921 37.9621C448.433 41.7927 443.601 47.2311 441.616 53.7194C440.532 57.2151 440.379 60.9332 441.173 64.506V64.506C441.351 65.3128 441.581 66.1074 441.862 66.8848C442.64 69.0521 443.855 71.037 445.43 72.7169C446.618 73.9585 447.984 75.0172 449.483 75.8585V75.8585C451.365 76.9016 453.379 77.6852 455.471 78.1881C455.397 78.4341 455.324 78.6966 455.242 78.9509C455.11 79.3693 454.995 79.7712 454.872 80.2223C454.602 81.2313 454.347 82.2566 454.134 83.2901C454.126 83.3637 454.126 83.438 454.134 83.5116C453.127 88.1773 452.62 92.9373 452.625 97.7105C452.623 99.9679 452.738 102.224 452.969 104.47V104.47C456.251 137.756 483.732 164.013 517.686 165.719C518.851 165.776 520.024 165.809 521.214 165.809C521.755 165.809 522.288 165.809 522.854 165.809C523.388 166.515 523.913 167.236 524.413 167.942C524.913 168.647 525.373 169.369 525.808 170.075L524.618 168.844L523.429 167.753C523.106 168.196 522.747 168.61 522.354 168.992C521.578 168.719 520.786 168.494 519.983 168.319V168.319C516.579 167.565 511.394 167.286 504.569 169.345C498.293 171.223 490.623 175.086 481.648 182.428L437.916 208.676L414.257 223.064L405.734 243.899C405.734 243.899 399.327 268.655 392.198 297.019C391.919 297.102 391.649 297.184 391.378 297.282C390.8 297.216 390.22 297.183 389.639 297.184C385.503 297.174 381.524 298.767 378.538 301.629C375.552 304.491 373.791 308.398 373.626 312.531C359.45 329.756 358.646 346.982 361.977 354.889C362.278 355.63 362.658 356.337 363.109 356.998C365.291 360.147 369.368 368.268 373.503 376.922C373.396 377.636 373.33 378.234 373.297 378.685C373.29 378.833 373.29 378.981 373.297 379.128C373.297 379.128 375.758 416.295 367.555 426.95C365.758 429.271 366.029 432.323 367.555 435.702C373.051 447.859 394.782 464.092 394.782 464.092C394.782 464.092 420.845 463.952 435.365 462.369C435.324 463.829 435.291 465.281 435.258 466.7C434.93 481.039 434.93 493.056 434.93 493.056L434.388 508.091C434.388 508.091 429.466 539.778 427.005 548.514C425.455 553.993 427.243 604.727 428.802 642.025H685.586C688.605 619.959 684.347 552.919 684.347 552.919C684.347 552.919 680.303 535.587 680.155 520.477C680.147 520.461 680.143 520.442 680.143 520.424C680.143 520.405 680.147 520.387 680.155 520.371C680.155 519.05 680.155 517.762 680.204 516.499L682.067 516.433L685.414 516.318H685.717C685.717 516.318 685.799 516.007 685.988 515.498C686.431 514.231 687.035 513.027 687.784 511.914C689.212 509.806 691.443 507.738 694.798 507.599C696.652 507.525 699.524 506.024 702.764 503.809C702.785 503.814 702.808 503.814 702.83 503.809C711.55 497.912 723.076 487.027 725.873 485.238C729.72 482.778 748.145 466.372 748.145 466.372C748.145 466.372 750.893 462.894 753.822 458.703L753.929 458.555C757.571 453.305 761.443 447.03 760.491 445.053C758.851 441.51 761.591 433.037 761.591 433.037C770.147 417.378 761.082 396.625 757.226 391.432ZM598.597 139.134C598.675 139.379 598.725 139.632 598.744 139.889C598.539 139.618 598.334 139.331 598.129 139.068L597.932 138.806L597.793 138.609L598.104 138.183C598.104 138.183 598.104 138.183 598.104 138.24C598.321 138.506 598.488 138.809 598.597 139.134V139.134ZM595.84 131.866C594.946 132.047 594.241 132.211 593.781 132.334C593.199 131.301 592.641 130.267 592.141 129.217C593.456 129.98 594.695 130.867 595.84 131.866V131.866ZM594.298 133.163C594.296 133.146 594.296 133.13 594.298 133.113L594.364 133.163C594.7 133.384 595.028 133.597 595.332 133.819C595.602 134.016 595.848 134.204 596.095 134.401C595.931 134.688 595.75 134.984 595.57 135.221C595.282 134.77 595.012 134.336 594.749 133.884C594.585 133.704 594.438 133.458 594.298 133.163ZM589.376 123.04C590.961 122.884 592.557 122.884 594.142 123.04V123.04C594.364 123.04 594.561 123.081 594.757 123.114C595.202 123.183 595.639 123.296 596.062 123.451C597.031 124.807 597.628 126.393 597.793 128.052L597.35 128.118L596.915 128.2C596.095 128.339 595.274 128.479 594.634 128.61L593.814 128.782C592.723 129.02 592.091 129.201 592.067 129.209C591.96 128.987 591.853 128.782 591.739 128.569C591.558 128.216 591.369 127.855 591.205 127.503C591.041 127.15 590.828 126.748 590.656 126.379C590.541 126.182 590.459 125.985 590.369 125.805C590.369 125.723 590.287 125.657 590.254 125.575C590.206 125.488 590.165 125.398 590.131 125.304C589.63 124.287 589.171 123.27 588.728 122.269C588.679 122.171 588.638 122.064 588.597 121.966L589.22 121.925V122.138L589.376 123.04ZM393.65 631.886C393.585 619.672 392.699 606.458 390.238 594.055C389.187 588.781 388.105 583.507 387.005 578.323C386.726 577.027 386.456 575.747 386.185 574.467L383.658 574.804H383.429C376.538 542.313 369.335 513.685 369.335 513.685C369.335 513.685 355.028 459.064 356.685 454.708C356.899 454.142 356.628 452.616 356.021 450.377C352.559 437.958 338.105 403.736 333.051 392.039C333.051 391.99 333.01 391.933 332.994 391.892C332.174 389.931 331.583 388.611 331.402 388.225L332.592 370.77L332.658 369.72L332.813 367.489L332.748 367.431L332.813 366.398C332.813 366.398 320.328 356.161 299.179 348.77C298.359 348.475 297.489 348.188 296.628 347.909C297.686 340.846 299.089 332.873 300.918 325.106C301.091 324.326 301.279 323.572 301.476 322.809C301.649 322.046 301.845 321.308 302.042 320.561C302.354 319.347 302.69 318.15 303.035 316.968C304.175 316.608 305.299 316.206 306.407 315.779L306.833 315.615C320.476 310.307 331.734 300.235 338.521 287.265C345.308 274.295 347.165 259.306 343.749 245.072V245.072C341.801 236.999 338.203 229.417 333.183 222.802C332.805 222.293 332.403 221.784 332.001 221.284C331.599 220.784 331.115 220.226 330.664 219.717C333.035 214.328 335.832 209.201 336.062 203.96C336.103 203.296 336.103 202.63 336.062 201.967V201.885C335.758 198.513 334.265 195.101 330.787 191.516C325.709 186.259 318.482 183.593 311.255 182.313C304.028 181.033 296.661 181.001 289.393 180.139C277.342 178.696 265.603 174.98 253.552 173.84C238.708 172.465 223.764 175.011 210.213 181.222C201.247 185.323 192.166 192.493 191.624 202.328C191.181 210.456 196.841 218.249 195.414 226.279C193.995 234.17 185.956 240.38 186.661 248.361C186.932 251.478 188.531 254.267 190.533 256.752C191.222 257.573 191.952 258.393 192.707 259.213C195.627 262.306 198.843 265.275 200.476 269.171C200.541 269.335 200.607 269.499 200.664 269.664C202.051 273.511 201.427 278.375 197.998 280.581C198.017 280.596 198.031 280.616 198.039 280.639V280.639C198.088 280.704 198.138 280.754 198.179 280.819C198.184 280.806 198.184 280.791 198.179 280.778C199.394 282.219 201.033 283.241 202.863 283.698L203.56 283.912C202.994 284.527 202.461 285.167 201.919 285.839L201.567 286.307C200.663 287.522 199.84 288.796 199.106 290.121C198.687 290.859 198.285 291.597 197.949 292.336C196.824 294.586 196.01 296.978 195.529 299.447C194.651 304.878 195.89 310.538 194.561 315.853C192.92 322.415 187.727 327.451 184.799 333.546C179.253 345.03 182.395 358.507 183.511 371.188C185.029 388.414 182.567 405.713 180.115 422.824C178.813 431.924 177.511 441.031 176.21 450.147C172.928 473.027 169.647 495.907 166.366 518.787C165.168 527.171 163.749 536.013 158.162 542.485H158.22C158.22 542.485 158.22 542.534 158.162 542.551C159.839 543.284 161.623 543.743 163.445 543.912V543.912C170.738 544.642 178.466 541.115 185.029 537.26C190.226 534.257 195.148 530.801 199.737 526.933C199.065 529.394 198.343 532.076 197.572 534.963C197.574 534.99 197.574 535.018 197.572 535.045V535.045C188.31 570.317 173.412 634.979 173.412 634.979C173.412 634.979 172.059 637.792 170.303 641.984H401.64C398.933 638.703 396.415 635.561 394.446 633.026L393.65 631.886ZM222.362 305.747C222.42 305.649 222.461 305.558 222.518 305.468C222.518 305.731 222.518 305.985 222.518 306.231C222.518 306.477 222.518 306.699 222.518 306.928C222.518 307.158 222.518 307.133 222.518 307.248C222.518 307.363 222.518 307.248 222.518 307.248C222.518 307.585 222.444 307.921 222.387 308.257C222.387 308.257 222.387 308.298 222.387 308.331L223.207 308.635L224.159 309.028C229.781 311.248 235.474 313.258 241.238 315.057C241.829 315.246 242.428 315.426 243.027 315.599L243.15 316.616C243.298 317.657 243.437 318.716 243.568 319.774C243.568 319.774 243.568 319.823 243.568 319.856C243.937 322.784 244.298 325.704 244.618 328.559C244.618 328.559 229.557 322.817 229.745 331.536C229.737 331.692 229.737 331.848 229.745 332.004C229.729 332.211 229.729 332.42 229.745 332.627C229.885 339.419 232.01 343.447 232.436 345.514C232.411 345.599 232.366 345.678 232.305 345.743C231.941 346.535 231.816 347.416 231.944 348.278C231.93 349.745 232.045 351.211 232.289 352.658C231.846 352.929 231.411 353.2 230.976 353.479C230.648 353.684 230.336 353.913 230.016 354.143C228.004 347.163 225.371 340.377 222.149 333.866C219.893 329.223 217.358 324.384 217.383 319.29C217.383 318.962 217.383 318.625 217.424 318.289C217.515 316.813 217.797 315.354 218.261 313.95C218.449 313.417 218.654 312.892 218.884 312.375C219.42 311.147 220.02 309.948 220.681 308.782C221.107 308.011 221.558 307.248 221.993 306.477C222.133 306.248 222.264 306.01 222.395 305.78L222.362 305.747ZM590.697 126.379C590.582 126.182 590.5 125.985 590.41 125.805C590.41 125.723 590.328 125.657 590.295 125.575C590.116 125.659 589.932 125.733 589.745 125.797C589.384 125.936 589.015 126.067 588.638 126.174C588.26 126.28 588.104 126.338 587.817 126.403L587.087 126.592L587.153 126.74C587.456 126.674 587.752 126.617 588.055 126.535L588.137 127.552C588.482 127.552 588.802 127.503 589.113 127.503H589.556C590.196 127.503 590.754 127.503 591.197 127.503C591.025 127.134 590.844 126.748 590.697 126.379Z" fill="url(#paint1_linear)"/>
<path d="M411.452 246.86L406.53 249.034C406.53 249.034 374.446 373.665 374.446 383.738C374.446 393.811 442.477 449.86 442.477 449.86L453.092 378.218C453.092 378.218 437.85 213.926 411.452 246.86Z" fill="#E8F5FF"/>
<path d="M560.68 207.216L532.255 192.386C530.663 185.599 527.838 179.163 523.921 173.397C519.762 167.392 514.232 161.495 507.342 158.419C489.926 150.61 581.008 109.621 581.008 109.621C582.443 114.545 584.133 119.391 586.07 124.14C590.762 135.722 598.547 150.7 608.58 154.965C625.635 162.225 560.68 207.216 560.68 207.216Z" fill="#FFC1C7"/>
<path opacity="0.1" d="M586.07 124.14C582.178 137.826 574.085 149.944 562.933 158.782C551.782 167.62 538.135 172.733 523.921 173.397C519.762 167.392 514.232 161.495 507.342 158.419C489.926 150.61 581.008 109.621 581.008 109.621C582.443 114.545 584.133 119.391 586.07 124.14V124.14Z" fill="black"/>
<path d="M588.63 103.444C588.633 116.867 584.655 129.989 577.199 141.151C569.744 152.313 559.145 161.013 546.744 166.152C534.342 171.29 520.696 172.636 507.529 170.019C494.363 167.402 482.269 160.939 472.776 151.448C463.283 141.958 456.819 129.865 454.2 116.701C451.581 103.536 452.925 89.8902 458.062 77.4894C463.2 65.0887 471.9 54.4899 483.062 47.0335C494.224 39.5771 507.347 35.5981 520.771 35.5997C529.693 35.5584 538.535 37.2851 546.786 40.6798C555.037 44.0746 562.534 49.0703 568.843 55.3784C575.153 61.6864 580.15 69.1819 583.546 77.4318C586.942 85.6818 588.67 94.5228 588.63 103.444V103.444Z" fill="#FFC1C7"/>
<path d="M598.424 198.505L579.917 241.684L563.593 270.344H511.337L496.095 231.16L502.272 190.524H542.182L567.949 189.072L576.652 186.168L582.264 189.351L598.424 198.505Z" fill="#575A89"/>
<path opacity="0.1" d="M592.05 140.947C592.05 140.947 603.593 143.408 593.256 151.881C582.92 160.354 547.26 187.3 547.26 187.3C547.26 187.3 559.786 198.456 557.194 211.523L598.695 188.391L606.078 151.381C606.078 151.381 606.907 140.258 592.05 140.947Z" fill="black"/>
<path opacity="0.1" d="M555.422 187.3L529.023 191.656C529.023 191.656 534.47 211.793 531.747 217.511C531.665 217.688 531.596 217.872 531.542 218.06L520.771 247.172L528.843 270.033L556.784 231.931L547.259 217.511C547.259 217.511 557.325 204.173 563.314 199.547C569.302 194.921 555.422 187.3 555.422 187.3Z" fill="black"/>
<path d="M555.422 186.176L529.023 190.524C529.023 190.524 534.47 210.662 531.747 216.379C531.665 216.556 531.596 216.74 531.542 216.928L520.771 246.04L528.843 268.901L556.784 230.774L547.259 216.354C547.259 216.354 557.325 203.017 563.314 198.39C569.302 193.764 555.422 186.176 555.422 186.176Z" fill="#DCE6F2"/>
<path d="M593.158 138.773C593.158 138.773 604.7 141.234 594.356 149.707C584.011 158.181 547.26 187.3 547.26 187.3C547.26 187.3 560.869 196.282 558.285 209.341L599.786 186.217L607.169 149.207C607.169 149.207 607.99 138.084 593.158 138.773Z" fill="#575A89"/>
<path opacity="0.1" d="M525.734 175.964C525.734 175.964 528.252 180.672 539.368 189.162C539.368 189.162 520.861 199.005 527.94 212.843L499.63 205.461L495.274 191.853L525.734 175.964Z" fill="black"/>
<path d="M524.643 174.881C524.643 174.881 527.161 179.59 538.277 188.08C538.277 188.08 519.77 197.874 526.849 211.752L498.548 204.37L494.191 190.77L524.643 174.881Z" fill="#575A89"/>
<path opacity="0.1" d="M598.424 198.505L579.917 241.684L563.625 270.344H511.337L496.095 231.16L502.264 190.524H513.363C513.182 200.006 516.644 211.145 516.423 215.288C516.045 222.096 526.579 258.828 526.579 258.828C526.579 258.828 548.621 223.179 557.325 220.004C562.797 218.011 574.388 201.425 582.255 189.351L598.424 198.505Z" fill="black"/>
<path d="M671.328 425.728L669.45 428.09C669.45 428.09 683.059 496.394 679.294 511.905C678.654 514.701 678.288 517.553 678.203 520.42V520.543C677.538 536.325 682.304 556.807 682.304 556.807C682.304 556.807 686.111 617.179 683.945 642.008H429.13C427.637 605.293 426.029 557.726 427.489 552.451C429.95 543.748 434.872 512.176 434.872 512.176L435.414 497.214C435.414 497.214 435.414 482.753 435.857 466.643C436.046 459.4 436.324 451.796 436.726 445.053C437.243 436.572 437.965 429.427 438.958 425.917C439.569 423.255 439.921 420.541 440.008 417.812C440.008 417.558 440.008 417.295 440.057 417.033C440.057 416.213 440.139 415.327 440.172 414.416C440.172 414.162 440.172 413.908 440.172 413.596C440.328 408.314 440.27 402.047 440.098 395.55C440.098 395.197 440.098 394.837 440.098 394.476C439.959 389.603 439.753 384.632 439.524 379.908C438.81 365.143 437.883 352.658 437.883 352.658L406.587 248.976L415.02 228.207L438.425 213.869L481.698 187.743C502.805 170.394 516.702 172.478 522.001 174.381C522.516 174.557 523.02 174.762 523.511 174.996C523.675 175.078 523.806 175.144 523.929 175.218C524.098 175.297 524.259 175.391 524.413 175.497V175.497C522.962 176.195 521.701 177.233 520.738 178.523C519.653 179.992 518.879 181.667 518.465 183.445C518.188 184.547 517.994 185.669 517.883 186.8C517.776 187.989 517.735 189.22 517.735 190.458C517.794 193.175 518.027 195.884 518.433 198.571C518.433 198.62 518.433 198.686 518.433 198.751C518.703 200.671 519.04 202.549 519.368 204.313C519.364 204.343 519.364 204.373 519.368 204.403C519.745 206.462 520.123 208.365 520.377 210.005C520.426 210.301 520.467 210.571 520.508 210.826C520.689 211.91 520.774 213.008 520.762 214.107C520.855 216.76 521.212 219.398 521.829 221.981C522.042 223.064 522.288 224.221 522.559 225.426C522.928 227.067 523.33 228.855 523.765 230.676C524.003 231.677 524.257 232.71 524.52 233.736C524.618 234.146 524.725 234.556 524.823 234.974L524.987 235.622C526.735 242.57 528.63 249.485 529.794 253.668C530.484 256.129 530.918 257.647 530.918 257.647C530.918 257.647 543.273 237.673 553.133 226.304C553.281 226.14 553.412 225.984 553.552 225.836C554.528 224.713 555.488 223.687 556.406 222.785C558.416 220.784 560.221 219.356 561.673 218.831C561.982 218.718 562.282 218.578 562.567 218.413C566.603 216.124 573.117 207.815 579.212 199.112C579.811 198.292 580.393 197.398 580.984 196.553C582.337 194.601 583.65 192.64 584.889 190.762C585.84 189.326 586.751 187.932 587.612 186.603C591.714 180.221 594.602 175.464 594.602 175.464L600.295 175.209L601.287 175.16H601.952L627.801 173.963C627.801 173.963 628.917 174.151 630.754 174.52C630.853 174.52 630.951 174.52 631.058 174.586C640.229 176.407 665.709 182.174 667.268 190.171C669.171 199.965 710.27 213.032 710.27 213.032C710.811 219.594 720.877 223.917 720.877 223.917C720.877 223.917 736.119 264.192 732.042 279.974C728.014 295.559 742.526 334.112 742.911 335.195L740.131 338.705L671.328 425.728Z" fill="#E8F5FF"/>
<path opacity="0.1" d="M592.042 138.084C592.042 138.084 617.202 130.948 622.92 145.639C628.638 160.33 641.427 219.66 641.427 219.66C641.427 219.66 608.219 225.919 599.515 219.66C594.41 215.945 588.091 214.293 581.821 215.034L563.043 227.822L557.497 226.181C557.497 226.181 587.538 181.526 594.068 166.351C600.598 151.176 602.805 144.392 592.042 138.084Z" fill="black"/>
<path d="M590.951 134.803C590.951 134.803 616.127 127.667 621.87 142.358C627.612 157.049 640.377 216.379 640.377 216.379C640.377 216.379 607.177 222.637 598.465 216.379C593.363 212.664 587.047 211.012 580.779 211.752L561.985 224.54L556.439 222.9C556.439 222.9 586.48 178.244 593.01 163.069C599.54 147.895 601.714 141.127 590.951 134.803Z" fill="#E8F5FF"/>
<path opacity="0.1" d="M422.067 371.492C422.067 371.492 440.845 376.118 444.388 386.732C447.932 397.347 430.508 397.617 430.508 397.617C430.508 397.617 419.893 378.841 422.067 371.492Z" fill="black"/>
<path opacity="0.1" d="M492.009 449.86C492.009 449.86 446.021 544.019 456.636 553.001C467.251 561.983 492.009 449.86 492.009 449.86Z" fill="black"/>
<path opacity="0.1" d="M555.422 380.474C555.422 380.474 592.165 471.934 584.815 486.059C577.465 500.184 600.598 486.059 600.598 486.059L555.422 380.474Z" fill="black"/>
<path d="M606.587 470.818C606.587 470.818 482.485 476.806 518.687 515.449C554.889 554.092 629.179 517.089 629.179 517.089L606.587 470.818Z" fill="#FFC1C7"/>
<path opacity="0.1" d="M588.629 103.444C588.641 112.344 586.893 121.159 583.486 129.381C582.346 129.512 581.205 129.594 580.106 129.644C578.465 126.043 579.343 121.884 579.376 117.922C579.409 113.96 577.949 109.301 574.134 108.235C566.529 106.094 561.279 120.309 553.781 117.741C548.039 115.789 549.54 107.078 546.234 102.05C543.617 98.0714 538.375 96.9476 534.298 94.454C525.627 89.1305 525.89 80.6161 521.862 72.561C517.645 64.1204 508.736 66.6141 501 71.5931C495.127 75.3827 490.057 80.4602 483.773 83.4788C478.334 86.1037 472.223 87.0552 466.193 87.1946C462.481 87.3385 458.768 86.9461 455.168 86.0298C459.402 70.1116 469.283 56.2768 482.966 47.1054C496.649 37.9339 513.202 34.052 529.537 36.1835C545.871 38.315 560.873 46.3145 571.744 58.69C582.616 71.0656 588.614 86.9724 588.621 103.444H588.629Z" fill="black"/>
<path d="M501.025 69.4194C495.143 73.209 490.082 78.2783 483.798 81.3133C478.359 83.9299 472.247 84.8815 466.218 85.0209C458.835 85.185 450.886 83.8889 445.84 78.5572C441.205 73.6356 440.098 66.0645 442.059 59.609C444.019 53.1534 448.72 47.7971 454.241 43.9172C459.762 40.0373 466.169 37.3551 469.827 31.8018C471.763 28.8653 472.699 25.4037 474.306 22.2785C479.45 12.2794 491.017 6.86566 502.198 6.19304C513.379 5.52042 524.462 8.85071 535.11 12.4599C545.758 16.0691 556.488 20.0392 567.727 20.7856C572.731 21.0973 577.932 20.7856 582.575 22.6805C588.818 25.2151 592.912 31.2769 595.701 37.4453C598.826 44.4012 600.771 51.9969 600.442 59.5926C599.753 75.8093 589.04 91.7225 593.748 107.258C594.995 111.401 597.333 115.65 596.086 119.792C594.265 125.837 586.464 127.216 580.155 127.503C578.515 123.902 579.392 119.735 579.425 115.781C579.458 111.827 577.998 107.16 574.191 106.094C566.579 103.969 561.328 118.16 553.847 115.601C548.146 113.64 549.622 104.937 546.308 99.9088C543.691 95.9223 538.441 94.8067 534.372 92.3131C525.701 86.9895 525.963 78.4751 521.936 70.4201C517.686 61.9385 508.769 64.4321 501.025 69.4194Z" fill="#99607E"/>
<path d="M380.689 381.556L374.43 383.738C374.43 383.738 376.891 420.749 368.687 431.363C360.484 441.977 395.627 468.365 395.627 468.365C395.627 468.365 443.798 468.095 445.16 464.264C446.521 460.433 442.699 395.69 442.699 395.69C442.699 395.69 416.841 385.617 419.015 369.564C419.015 369.564 411.123 407.387 399.425 405.754C387.727 404.122 374.446 394.353 380.689 381.556Z" fill="#E8F5FF"/>
<path opacity="0.1" d="M401.566 417.205C410.687 417.205 418.08 410.444 418.08 402.104C418.08 393.764 410.687 387.003 401.566 387.003C392.446 387.003 385.053 393.764 385.053 402.104C385.053 410.444 392.446 417.205 401.566 417.205Z" fill="black"/>
<path d="M419.622 382.647C419.622 382.647 416.341 282.509 387.776 304.82C359.212 327.131 358.933 353.815 364.372 361.698C369.811 369.58 387.251 409.044 387.251 409.044C389.98 410.624 393.043 411.537 396.192 411.705C399.341 411.874 402.484 411.294 405.366 410.014C408.247 408.733 410.784 406.788 412.769 404.339C414.753 401.889 416.129 399.003 416.784 395.919L419.622 382.647Z" fill="#FFC1C7"/>
<path opacity="0.1" d="M597.809 128.996C597.676 128.556 597.42 128.163 597.071 127.864C595.66 126.576 592.624 126.125 588.047 126.518L588.236 128.684C594.339 128.159 595.545 129.373 595.701 129.578V129.783L595.889 130.054C596.65 131.076 597.189 132.247 597.472 133.49C597.755 134.733 597.774 136.021 597.53 137.272C596.193 143.957 587.981 149.281 587.899 149.338L587.702 149.453L587.579 149.642C584.035 154.9 563.994 169.738 558.752 173.577L558.293 173.052C555.947 175.086 535.323 193.141 534.208 200.055C533.486 204.395 528.597 206.076 526.825 206.544C524.954 205.125 518.884 200.293 515.725 194.88C512.764 189.786 524.684 179.844 525.734 175.964L524.093 174.283C523.921 174.906 508.613 189.211 512.871 196.52C516.283 202.385 522.518 207.405 524.7 209.062C524.003 215.394 519.663 252.577 512.994 261.387C504.708 272.338 497.744 327.525 498.515 346.793C499.196 363.912 494.725 396.247 479.794 410.135C477.21 412.644 474.091 414.538 470.672 415.674C467.253 416.81 463.622 417.16 460.049 416.697H459.868H459.688C459.475 416.697 437.817 418.911 419.622 403.572C404.733 391.047 396.3 370.606 394.544 342.799H394.183L394.036 334.703C398.073 334.073 401.708 331.902 404.179 328.648C406.649 325.394 407.762 321.309 407.284 317.252C406.805 313.194 404.772 309.48 401.613 306.89C398.453 304.3 394.412 303.035 390.339 303.362C386.266 303.688 382.478 305.58 379.772 308.64C377.065 311.701 375.649 315.691 375.823 319.773C375.997 323.855 377.746 327.71 380.703 330.529C383.661 333.349 387.596 334.912 391.681 334.891H391.862L392.009 342.938L391.288 342.987C393.092 371.697 401.952 392.933 417.539 406.05C429.385 415.866 444.518 420.817 459.877 419.904C460.966 420.023 462.062 420.083 463.158 420.084C470.198 420.121 476.971 417.397 482.026 412.497C497.752 397.855 502.534 364.331 501.788 346.629C500.967 326.213 508.277 273.01 515.611 263.323C522.797 253.816 527.153 216.772 527.916 209.595C530.516 208.865 536.398 206.56 537.399 200.572C538.121 196.241 551.894 182.895 560.369 175.505L560.114 175.209C564.675 171.879 578.859 161.38 585.889 154.637C588.072 152.545 590.237 150.454 592.501 148.46C595.225 146.049 598.687 142.218 599.597 137.69C599.908 136.196 599.909 134.653 599.602 133.158C599.294 131.663 598.684 130.246 597.809 128.996V128.996Z" fill="black"/>
<path d="M524.421 208.545C524.077 208.307 515.906 202.459 511.812 195.421C507.563 188.112 522.871 173.815 523.035 173.192L524.676 174.873C523.634 178.745 511.714 188.695 514.675 193.78C518.408 200.203 526.267 205.822 526.349 205.879L524.421 208.545Z" fill="#353146"/>
<path d="M557.686 175.168L556.406 173.405C556.669 173.216 582.436 154.58 586.497 148.551L586.628 148.37L586.817 148.247C586.899 148.19 595.11 142.874 596.447 136.181C596.694 134.931 596.675 133.644 596.393 132.402C596.11 131.16 595.57 129.991 594.807 128.971L594.618 128.692V128.495C594.454 128.282 593.248 127.076 587.145 127.601L586.956 125.427C591.542 125.034 594.569 125.485 595.98 126.773C596.331 127.075 596.59 127.47 596.726 127.913C597.613 129.16 598.235 130.576 598.554 132.072C598.873 133.569 598.882 135.115 598.58 136.616C597.67 141.152 594.216 144.983 591.484 147.386C589.228 149.379 587.054 151.487 584.881 153.563C576.636 161.462 558.588 174.52 557.686 175.168Z" fill="#E8F5FF"/>
<path d="M392.977 331.847L390.804 331.887L391.046 345.099L393.219 345.059L392.977 331.847Z" fill="#E8F5FF"/>
<path d="M390.623 333.85C399.39 333.85 406.497 326.743 406.497 317.977C406.497 309.211 399.39 302.105 390.623 302.105C381.856 302.105 374.749 309.211 374.749 317.977C374.749 326.743 381.856 333.85 390.623 333.85Z" fill="#79CD8B"/>
<path d="M390.623 331.159C397.904 331.159 403.806 325.257 403.806 317.977C403.806 310.697 397.904 304.796 390.623 304.796C383.342 304.796 377.44 310.697 377.44 317.977C377.44 325.257 383.342 331.159 390.623 331.159Z" fill="#E8F5FF"/>
<path d="M462.124 419.026C461.028 419.028 459.933 418.97 458.843 418.854C443.486 419.758 428.356 414.808 416.505 405C400.918 391.875 392.075 370.663 390.254 341.929L393.535 341.724C395.291 369.531 403.724 389.981 418.621 402.498C436.817 417.796 458.466 415.622 458.679 415.622H458.859H459.04C462.614 416.083 466.246 415.732 469.666 414.596C473.086 413.46 476.206 411.568 478.794 409.06C493.716 395.173 498.187 362.838 497.506 345.719C496.685 326.434 503.65 271.247 511.944 260.304C519.204 250.715 523.708 207.495 523.757 207.061L523.88 205.83L525.094 205.617C525.168 205.617 532.255 204.272 533.141 198.973C534.29 192.066 554.881 174.012 557.219 171.969L559.36 174.43C550.853 181.813 537.079 195.167 536.39 199.506C535.389 205.51 529.507 207.807 526.915 208.529C526.095 215.714 521.771 252.75 514.61 262.256C507.276 271.944 499.967 325.146 500.787 345.563C501.493 363.264 496.759 396.797 481.033 411.431C475.969 416.343 469.179 419.07 462.124 419.026Z" fill="#353146"/>
<g opacity="0.1">
<path opacity="0.1" d="M595.619 84.053C596.964 79.0822 598.588 74.0785 599.721 69.0421C598.367 74.1031 596.734 79.0822 595.619 84.053Z" fill="black"/>
<path opacity="0.1" d="M581.894 123.114C580.254 119.513 581.132 115.346 581.164 111.393C581.197 107.439 579.737 102.813 575.931 101.705C568.318 99.5807 563.068 113.78 555.586 111.212C549.844 109.252 551.361 100.549 548.047 95.5203C545.43 91.5338 540.188 90.4183 536.119 87.9246C527.44 82.6011 527.703 74.0867 523.683 66.0317C519.458 57.5829 510.557 60.0765 502.813 65.0637C496.931 68.8534 491.87 73.9308 485.586 76.9576C480.147 79.5743 474.036 80.5258 468.006 80.6653C460.664 80.8375 452.674 79.5333 447.629 74.2015C443.74 70.1002 442.338 64.0876 443.141 58.4524C443.002 58.8379 442.879 59.2234 442.756 59.6089C440.787 66.0645 441.936 73.6519 446.538 78.5572C451.583 83.8889 459.573 85.1849 466.915 85.0209C472.953 84.8814 479.056 83.9299 484.503 81.3133C490.803 78.2783 495.865 73.209 501.73 69.4194C509.474 64.4321 518.383 61.9385 522.6 70.3873C526.62 78.4423 526.365 86.9567 535.036 92.2803C539.138 94.7411 544.347 95.8894 546.972 99.876C550.254 104.921 548.802 113.607 554.511 115.568C561.985 118.127 567.235 103.936 574.848 106.061C578.654 107.127 580.123 111.803 580.081 115.748C580.04 119.694 579.187 123.869 580.812 127.47C587.12 127.183 594.922 125.829 596.751 119.759C597.003 118.888 597.119 117.983 597.095 117.077C594.429 121.679 587.571 122.86 581.894 123.114Z" fill="black"/>
</g>
<path opacity="0.1" d="M730.155 325.228L739.679 335.301C739.679 335.301 747.3 390.809 751.107 396.001C754.913 401.194 763.904 421.848 755.463 437.359C755.463 437.359 752.739 445.8 754.372 449.335C756.004 452.871 742.132 470.564 742.132 470.564C742.132 470.564 723.896 486.887 720.081 489.34C716.267 491.792 696.136 511.38 689.335 511.651C682.534 511.922 680.311 520.362 680.311 520.362L641.936 521.724C641.936 521.724 620.738 520.617 616.127 523.611C616.127 523.611 618.589 491.226 594.905 469.998L625.11 459.113C625.11 459.113 636.546 454.191 640.082 449.048C642.306 445.895 645.461 443.517 649.105 442.248C649.105 442.248 657.538 436.26 657.809 432.995C658.08 429.731 668.121 425.728 668.121 425.728L662.436 377.209L665.43 296.659C665.43 296.659 674.954 229.167 695.094 232.981C715.233 236.795 730.155 325.228 730.155 325.228Z" fill="black"/>
<path d="M733.437 325.228L742.961 335.301C742.961 335.301 750.582 390.809 754.388 396.001C758.195 401.194 767.186 421.848 758.744 437.359C758.744 437.359 756.029 445.8 757.661 449.335C759.294 452.871 745.414 470.564 745.414 470.564C745.414 470.564 727.177 486.887 723.363 489.34C719.548 491.792 699.417 511.38 692.616 511.651C685.816 511.922 683.593 520.362 683.593 520.362L645.217 521.724C645.217 521.724 624.003 520.617 619.409 523.611C619.409 523.611 621.87 491.226 598.187 469.998L628.392 459.113C628.392 459.113 639.827 454.191 643.363 449.048C645.587 445.895 648.743 443.517 652.387 442.248C652.387 442.248 660.82 436.26 661.09 432.995C661.361 429.731 671.402 425.728 671.402 425.728L665.717 377.209L668.711 296.659C668.711 296.659 678.236 229.167 698.375 232.981C718.515 236.795 733.437 325.228 733.437 325.228Z" fill="#E8F5FF"/>
<path opacity="0.1" d="M698.031 406.599C698.031 406.599 726.062 399.217 733.412 408.24C740.762 417.263 698.031 406.599 698.031 406.599Z" fill="black"/>
<path opacity="0.1" d="M691.501 418.977C701.025 425.646 730.418 425.917 730.418 425.917L691.501 418.977Z" fill="black"/>
<path opacity="0.1" d="M705.922 452.313C706.743 452.583 726.127 473.271 734.265 467.012C742.403 460.753 705.922 452.313 705.922 452.313Z" fill="black"/>
<path opacity="0.1" d="M444.856 278.695C444.856 278.695 450.549 317.887 447.744 333.85C444.938 349.812 455.176 369.589 455.176 369.589L444.856 278.695Z" fill="black"/>
<path d="M318.818 294.632C312.256 299.776 307.465 311.948 303.995 325.327C297.941 348.664 295.964 375.724 295.964 375.724C295.964 375.724 243.708 363.748 247.514 358.31C249.91 354.889 246.694 329.117 244.011 310.431C242.412 299.39 240.984 290.818 240.984 290.818C240.984 290.818 336.784 280.475 318.818 294.632Z" fill="#FFCCD0"/>
<path opacity="0.1" d="M318.818 293.541C312.256 298.693 307.465 310.857 303.995 324.236C293.583 327.397 282.511 327.682 271.95 325.061C261.39 322.44 251.736 317.011 244.011 309.348C242.412 298.299 240.984 289.727 240.984 289.727C240.984 289.727 336.784 279.392 318.818 293.541Z" fill="black"/>
<path d="M346.907 264.225C346.912 278.492 341.87 292.301 332.672 303.208C323.474 314.115 310.714 321.417 296.649 323.821C282.585 326.225 268.124 323.577 255.824 316.345C243.525 309.112 234.181 297.762 229.446 284.304C224.711 270.845 224.891 256.146 229.953 242.807C235.015 229.467 244.633 218.349 257.105 211.419C269.577 204.489 284.099 202.194 298.1 204.941C312.102 207.688 324.68 215.299 333.609 226.427C342.214 237.147 346.904 250.48 346.907 264.225V264.225Z" fill="#FFCCD0"/>
<path opacity="0.1" d="M394.553 642.008H377.325L375.873 611.584L374.356 580.094C374.356 580.094 378.269 579.512 384.503 578.642L387.022 578.306H387.227C388.589 584.696 389.934 591.258 391.23 597.812C393.388 609.447 394.51 621.251 394.585 633.084C394.585 633.904 394.585 634.724 394.585 635.495C394.635 637.685 394.585 639.876 394.553 642.008Z" fill="black"/>
<path d="M391.247 642.008H175.201C176.136 639.884 176.759 638.596 176.759 638.596C176.759 638.596 194.044 562.983 202.83 530.993C202.833 530.966 202.833 530.938 202.83 530.911C203.928 526.565 205.253 522.28 206.8 518.074V518.074C206.9 517.788 207.03 517.513 207.186 517.253C211.534 510.183 216.981 502.562 209.36 491.677C201.739 480.792 204.438 432.897 204.438 432.897C204.438 432.897 213.691 392.072 223.486 370.302C224.973 366.93 227.082 363.869 229.704 361.279C230.557 360.445 231.467 359.672 232.428 358.966V358.966C233.159 358.417 233.92 357.911 234.709 357.449L234.864 357.35C238.979 355.018 243.548 353.599 248.261 353.191C251.608 352.842 254.987 352.935 258.31 353.47C274.192 355.8 286.907 359.696 297.014 364.134C324.405 376.167 332.699 392.294 332.863 392.63L332.928 392.769C334.028 395.337 350.106 432.872 355.898 450.385C357.399 454.946 358.22 458.153 357.891 459.031C356.251 463.378 370.41 517.803 370.41 517.803C370.41 517.803 376.973 544.052 383.535 574.82C383.822 576.1 384.093 577.379 384.356 578.675C385.529 584.261 386.694 589.954 387.818 595.638C389.995 607.354 391.118 619.24 391.173 631.156C391.293 634.869 391.318 638.486 391.247 642.008Z" fill="#FF748E"/>
<path opacity="0.1" d="M246.973 334.473C246.973 334.473 232.067 328.731 232.247 337.442C232.428 346.154 235.882 350.321 234.791 351.592C233.7 352.863 235.332 360.484 235.332 360.484C235.332 360.484 255.471 360.484 264.725 364.651C273.978 368.818 308.088 377.168 312.444 379.711C316.8 382.254 332.953 393.655 332.953 393.655L334.405 372.066C334.405 372.066 317.711 358.277 290.32 351.206C262.928 344.136 246.973 334.473 246.973 334.473Z" fill="black"/>
<path d="M246.973 333.382C246.973 333.382 232.067 327.64 232.247 336.351C232.428 345.063 235.882 349.23 234.791 350.501C233.7 351.772 235.332 359.393 235.332 359.393C235.332 359.393 255.471 359.393 264.725 363.568C273.978 367.743 308.088 376.085 312.444 378.62C316.8 381.154 332.953 392.564 332.953 392.564L334.421 371.041C334.421 371.041 317.727 357.252 290.336 350.181C262.945 343.11 246.973 333.382 246.973 333.382Z" fill="#FF748E"/>
<path opacity="0.1" d="M291.969 385.338C291.969 385.338 320.451 416.172 318.999 424.711C317.547 433.25 291.969 385.338 291.969 385.338Z" fill="black"/>
<path opacity="0.1" d="M245.701 496.722C245.701 496.722 224.823 515.957 218.671 517.048C212.518 518.139 223.388 521.765 230.459 518.869C237.531 515.974 252.608 508.354 252.608 508.354L245.701 496.722Z" fill="black"/>
<path d="M399.729 642.008H351.042C344.233 636.102 337.793 630.631 333.691 627.342C327.129 622.076 322.395 614.324 319.376 608.09C318.695 606.671 318.105 605.342 317.604 604.136C316.708 602.059 315.92 599.937 315.242 597.779L351.296 576.37C353.288 578.065 355.161 579.895 356.899 581.85L357.334 582.35C359.335 584.712 361.099 587.395 361.255 589.593C361.435 592.152 368.556 602.053 375.832 611.56C383.215 621.231 390.779 630.475 391.279 631.099C391.279 631.099 392.526 632.797 394.561 635.405C395.996 637.292 397.768 639.556 399.729 642.008Z" fill="#FFCCD0"/>
<path opacity="0.1" d="M333.609 226.427C331.878 230.332 330.328 234.384 330.098 238.731C329.45 251.281 330.5 279.343 316.603 285.642C309.721 288.743 302.354 281.935 294.807 281.771C289.376 281.656 284.397 285.101 281.083 289.407C277.768 293.714 275.709 298.824 273.306 303.696C271.118 308.119 268.597 312.369 265.767 316.411C264.921 317.647 263.989 318.823 262.978 319.93C254.504 316.354 246.958 310.892 240.916 303.959C234.873 297.026 230.493 288.806 228.109 279.924C225.725 271.042 225.4 261.733 227.158 252.706C228.917 243.68 232.714 235.174 238.258 227.837C243.803 220.499 250.949 214.524 259.153 210.367C267.356 206.21 276.401 203.98 285.597 203.847C294.793 203.714 303.899 205.682 312.219 209.601C320.539 213.52 327.855 219.286 333.609 226.46V226.427Z" fill="black"/>
<path d="M329.007 236.516C328.351 249.067 329.409 277.128 315.504 283.419C308.622 286.52 301.255 279.72 293.708 279.556C288.277 279.433 283.306 282.886 279.983 287.184C276.661 291.483 274.618 296.601 272.206 301.482C270.018 305.904 267.498 310.154 264.668 314.196C262.978 316.591 261.107 318.994 258.507 320.34C253.978 322.702 248.49 321.373 243.634 319.856C237.334 317.871 231.126 315.634 225.012 313.146C225.152 312.223 225.224 311.291 225.225 310.357C225.045 310.702 224.848 311.021 224.651 311.366L224.266 312.039C223.568 313.269 222.887 314.499 222.264 315.763C222.026 316.247 221.796 316.747 221.591 317.247C220.766 319.109 220.248 321.093 220.057 323.12C219.639 328.592 222.338 333.784 224.733 338.706C233.946 357.744 239.639 380.006 232.707 399.98C229.704 408.666 224.503 416.385 220.705 424.776C214.066 439.639 212.111 456.171 215.102 472.172C216.997 482.113 220.796 491.956 219.86 502.038C218.22 519.386 203.257 532.297 188.269 541.173C180.172 545.947 170.262 550.196 161.665 546.422C167.145 540.024 168.556 531.173 169.737 522.823C172.969 500.047 176.21 477.26 179.458 454.462C180.755 445.39 182.048 436.318 183.339 427.245C185.75 410.2 188.195 392.966 186.686 375.815C185.586 363.174 182.485 349.755 187.965 338.312C190.861 332.25 196.021 327.23 197.629 320.701C198.95 315.394 197.719 309.75 198.589 304.344C199.065 301.885 199.871 299.501 200.984 297.257C202.402 294.213 204.254 291.389 206.481 288.874C204.282 288.234 202.231 287.357 200.984 285.519C204.512 283.223 205.045 278.047 203.445 274.159C201.846 270.271 198.646 267.309 195.767 264.242C192.887 261.174 190.115 257.597 189.754 253.414C189.056 245.449 197.014 239.281 198.417 231.423C199.836 223.425 194.225 215.649 194.676 207.553C195.201 197.767 204.192 190.655 213.068 186.529C226.462 180.329 241.259 177.782 255.955 179.147C267.916 180.279 279.491 183.978 291.419 185.414C298.613 186.234 305.906 186.316 313.051 187.579C320.197 188.842 327.358 191.508 332.387 196.75C345.644 210.571 329.762 221.948 329.007 236.516Z" fill="#FFE0D0"/>
<path opacity="0.1" d="M317.916 608.098C313.732 606.286 306.12 607.368 293.051 603.39C279.983 599.412 277.465 581.431 277.465 581.431V581.374C277.309 580.964 276.095 578.29 267.875 568.922C258.794 558.579 239.163 506.336 239.163 506.336C239.163 506.336 221.755 487.642 222.305 480.752C222.855 473.861 219.212 455.528 219.573 435.021C219.934 414.515 258.761 400.915 258.761 400.915C333.519 387.667 315.914 473.845 313.921 480.374C311.928 486.904 322.272 504.539 322.272 504.539C320.812 512.217 328.261 524.103 328.261 524.103C328.261 524.103 330.065 534.619 330.434 538.613C330.455 538.798 330.496 538.979 330.558 539.155C331.755 542.92 341.517 546.332 345.488 548.407C349.663 550.589 363.092 569.636 363.092 569.636C365.988 583.621 322.083 609.936 317.916 608.098Z" fill="black"/>
<path d="M320.09 604.817C315.914 602.996 308.293 604.087 295.233 600.101C282.174 596.114 279.647 578.15 279.647 578.15V578.093C279.499 577.674 278.277 575.009 270.057 565.641C260.976 555.298 241.345 503.046 241.345 503.046C241.345 503.046 223.937 484.361 224.479 477.47C225.02 470.58 221.394 452.247 221.755 431.757C222.116 411.266 260.919 397.675 260.919 397.675C335.676 384.427 318.072 470.605 316.078 477.134C314.085 483.663 324.43 501.299 324.43 501.299C322.969 508.977 330.418 520.863 330.418 520.863C330.418 520.863 332.223 531.378 332.6 535.373C332.614 535.558 332.653 535.74 332.715 535.915C333.913 539.68 343.675 543.092 347.653 545.167C351.821 547.341 365.258 566.396 365.258 566.396C368.17 580.357 324.265 606.671 320.09 604.817Z" fill="#FF748E"/>
<path opacity="0.1" d="M262.395 442.666C262.395 442.666 295.053 477.118 303.576 477.118C312.1 477.118 262.395 442.666 262.395 442.666Z" fill="black"/>
<path d="M320.09 604.817C315.914 602.996 308.293 604.087 295.234 600.101C282.174 596.114 279.647 578.15 279.647 578.15V578.093C288.302 572.351 310.221 556.134 318.859 550.204C324.938 546.045 329.901 539.934 332.805 535.882C334.003 539.647 343.765 543.059 347.744 545.134C351.911 547.308 365.348 566.363 365.348 566.363C368.17 580.357 324.265 606.671 320.09 604.817Z" fill="#FF748E"/>
<g opacity="0.1">
<path opacity="0.1" d="M201.033 285.609C201.074 285.675 201.132 285.733 201.181 285.798C201.427 285.486 201.682 285.175 201.944 284.879C201.664 285.151 201.36 285.396 201.033 285.609V285.609Z" fill="black"/>
<path opacity="0.1" d="M220.065 323.211C220.41 318.658 222.846 314.647 225.127 310.644C223.634 310.07 222.141 309.488 220.664 308.881C220.805 307.96 220.876 307.031 220.878 306.1C218.572 310.201 216.062 314.237 215.709 318.855C215.291 324.334 217.99 329.518 220.385 334.44C229.606 353.47 235.291 375.732 228.359 395.714C225.348 404.393 220.156 412.12 216.357 420.511C209.72 435.371 207.769 451.901 210.763 467.898C212.641 477.848 216.448 487.683 215.513 497.764C213.872 515.113 198.917 528.024 183.921 536.891C177.793 540.516 170.632 543.838 163.782 543.601C163.148 544.621 162.44 545.594 161.665 546.513C170.271 550.31 180.172 546.037 188.269 541.246C203.273 532.388 218.261 519.509 219.901 502.128C220.837 492.047 217.03 482.212 215.143 472.262C212.148 456.266 214.094 439.738 220.722 424.875C224.495 416.492 229.745 408.757 232.723 400.078C239.655 380.096 233.962 357.834 224.75 338.804C222.362 333.85 219.647 328.69 220.065 323.211Z" fill="black"/>
<path opacity="0.1" d="M332.371 196.848C331.564 196.02 330.697 195.253 329.778 194.551C339.721 207.446 325.365 218.405 324.651 232.284C324.011 244.834 325.061 272.904 311.156 279.187C304.282 282.296 296.907 275.487 289.368 275.323C283.929 275.208 278.958 278.662 275.636 282.96C272.313 287.258 270.27 292.377 267.867 297.249C265.674 301.671 263.151 305.921 260.32 309.963C258.679 312.367 256.759 314.762 254.151 316.115C249.639 318.469 244.151 317.149 239.286 315.623C234.555 314.136 229.869 312.495 225.225 310.702C225.216 311.556 225.145 312.408 225.012 313.253C231.132 315.746 237.342 317.983 243.642 319.962C248.499 321.488 253.987 322.809 258.507 320.455C261.107 319.101 262.994 316.698 264.676 314.294C267.509 310.258 270.03 306.01 272.215 301.588C274.627 296.716 276.661 291.589 279.992 287.291C283.322 282.993 288.285 279.548 293.716 279.663C301.263 279.827 308.638 286.635 315.512 283.526C329.417 277.243 328.359 249.173 329.007 236.623C329.762 222.03 345.644 210.662 332.371 196.848Z" fill="black"/>
</g>
<path opacity="0.1" d="M224.274 312.047C223.576 313.277 222.896 314.508 222.272 315.771C222.034 316.255 221.805 316.755 221.599 317.255C217.301 312.924 206.833 302.63 200.992 299.439C202.413 296.396 204.264 293.572 206.489 291.056C206.489 291.056 220.41 298.414 224.274 312.047Z" fill="black"/>
<path d="M224.659 311.374C221.435 296.782 206.489 288.882 206.489 288.882C204.262 291.397 202.411 294.221 200.992 297.266C207.153 300.637 218.507 311.94 222.272 315.771L224.659 311.374Z" fill="#FF748E"/>
</g>
<defs>
<linearGradient id="paint0_linear" x1="598.876" y1="78.2619" x2="598.876" y2="63.1853" gradientUnits="userSpaceOnUse">
<stop stop-color="#808080" stop-opacity="0.25"/>
<stop offset="0.54" stop-color="#808080" stop-opacity="0.12"/>
<stop offset="1" stop-color="#808080" stop-opacity="0.1"/>
</linearGradient>
<linearGradient id="paint1_linear" x1="376351" y1="540151" x2="376351" y2="37660.5" gradientUnits="userSpaceOnUse">
<stop stop-color="#808080" stop-opacity="0.25"/>
<stop offset="0.54" stop-color="#808080" stop-opacity="0.12"/>
<stop offset="1" stop-color="#808080" stop-opacity="0.1"/>
</linearGradient>
<clipPath id="clip0">
<rect width="891" height="642" fill="white"/>
</clipPath>
</defs>
</svg>
