<svg width="1096" height="757" viewBox="0 0 1096 757" fill="none" xmlns="http://www.w3.org/2000/svg">
<path d="M267.072 249.95C236.318 204.859 63.6999 172.737 4 84C-15.0584 55.672 52.6317 23.2204 162 -0.266998H787.44C869.866 20.5397 942.075 52.4707 993.207 98.6794C1038.64 139.734 1071.61 178.092 1095.31 218V723.892C1078.43 735.589 1057.36 744.974 1031.2 751.513C885.496 787.926 839.392 625.42 688.677 604.323C532.312 582.436 421.5 723.753 349 692C171.233 614.142 362.161 389.365 267.072 249.95Z" fill="#E2F1FF"/>
<path d="M291.5 245.5C260.746 200.409 63.6999 118.237 4.00001 29.5C-3.18578 18.8192 2.67696 8.34173 19 -1.4209H846.989C926.125 22.4964 994.572 55.2259 1042.66 98.6794C1063.16 117.205 1081.12 135.182 1096.84 153V746.901C1091.67 748.566 1086.28 750.105 1080.65 751.513C934.944 787.926 888.84 625.42 738.126 604.323C581.761 582.436 461.716 699.212 355 661.5C222 614.5 386.589 384.915 291.5 245.5Z" fill="#79CD8B"/>
<path d="M312.99 239.368C282.236 194.278 100.2 112.237 40.5 23.5C34.9442 15.2419 37.1754 7.02861 46 -0.889099H926.614C986.797 20.8727 1038.83 48.7543 1077.63 83.8212C1083.65 89.2582 1089.45 94.6478 1095.03 100V740.597C965.184 757.584 916.48 609.535 773.101 589.465C616.736 567.578 470.429 693.536 371.484 640.076C220.5 558.5 408.08 378.784 312.99 239.368Z" fill="#41BB92"/>
</svg>
